<?xml version="1.0" encoding="UTF-8"?>
<svg id="Layer_1" data-name="Layer 1" xmlns="http://www.w3.org/2000/svg" version="1.1" viewBox="0 0 3840 2161">
  <defs>
    <style>
      .cls-1, .cls-2 {
        fill: #000;
        stroke-width: 0px;
      }

      .cls-2 {
        fill-rule: evenodd;
      }
    </style>
  </defs>
  <g>
    <path class="cls-1" d="M1743.1,778.9h87v234.5h217.7v86.9h-217.7v549.3h-87v-549.3h-217.9v-86.9h217.9v-234.5h0Z"/>
    <path class="cls-1" d="M1783,510.9c2.2.8,88.6,64.6,96.1,70l399.5,290.3v107.8c-55.5-39-111.2-80.7-165.8-120.3l-324.4-235.7-3.6-2.1c-4.7.9-8.9,3.9-12,6.2-49.2,36.6-99.6,72.8-149.5,109.1l-328.9,239v-107.9l343-249.4,94.9-68.8c13-9.4,41-28.7,50.6-38.1h0l.1-.1h0Z"/>
    <path class="cls-1" d="M2121.1,982.9h87.5v666.8h-296.3v-87.3h208.8v-579.4h0v-.1h0Z"/>
    <path class="cls-1" d="M1354.4,982.9h87.4v579.4h208.8v87.3h-296.2v-666.8h0v.1h0Z"/>
  </g>
  <path class="cls-1" d="M3253.7,1471.1c78.9-3.8,81.5,71.9,76,100.6-4.3,22.5-14.3,50.8-57.7,58.5-35.3,1.9-56.3-10.5-66.7-28.5-19.3-33.5-26.1-117,48.4-130.6ZM3267.8,1618.5c32.8-10.3,36.5-42.2,37.2-61.1.7-18.8,1.6-74.8-48-74.9-34.9,9.8-37.3,44.2-37.9,63.5-.6,18.5-.4,73.1,48.7,72.5Z"/>
  <path class="cls-1" d="M2831.8,986.9c77.7-1.1,79.3,70.7,74.2,100.3-4,23.3-14.3,50.9-58.7,59-83.8,1.5-81.2-70.8-76.1-102.6,3.6-22.2,17.6-50.2,60.6-56.6h0v-.1h0ZM2846.9,1133.9c44.5-17.4,37.2-83.6,27.2-110-5.2-13.6-16.6-26.5-44.5-24.8-33.4,13.3-34.5,49.7-34.2,70.6.3,17.5,3,68.3,51.5,64.1h0v.1Z"/>
  <path class="cls-1" d="M3497.4,986.9c76-1.1,78.9,67.7,74.7,96.9-3.5,24.3-12.8,53.5-59.1,62.3-81.1,1.3-80.6-65.1-77.3-96.7,2.5-23.4,15.6-55.7,61.6-62.5h.1ZM3512.7,1133.8c44.6-17.8,37.2-85.2,26-111.9-5.6-13.3-17-24.1-43.5-22.8-33.6,13.3-34.5,49.7-34.2,70.7.2,17.5,3.1,68.7,51.7,64Z"/>
  <path class="cls-1" d="M2850.6,1229.3c77.3-2.6,80.5,67.3,76.3,96.6-3.4,23.9-12.7,53.8-58.4,62.4-38.7,1.5-59-12.6-68.8-32.2-16.3-32.9-22.9-113.9,50.8-126.8h.1,0ZM2865.7,1376.4c15.1-5.1,19.7-10.3,25.5-19.7,13.4-21.9,26-117.1-39-115.8-35.3,11.8-36.1,47.8-36.4,68.3-.3,17.3,2.2,70.5,49.9,67.2Z"/>
  <path class="cls-1" d="M3495.3,1474.2c28,0,80.5-3.4,100.3,7.4,52.3,28.5,47.5,107.1,4.3,136.7-12,6.2-24.9,8.7-41,8.9-13.5.2-51.7,2.2-61.7-2.7v-2.2c4.2-3.6,9.8-4.3,17.2-6v-131.2c-15-3.3-16.7-2.1-19.1-11.1v.2h0ZM3536.9,1614.3c24.6.2,34.6,2.3,51.4-8.6,15.9-16.5,19.1-36.6,18.3-55.1-.9-21.4-1-50.1-35-63.7h-34.7v127.4h0Z"/>
  <path class="cls-1" d="M2325.4,1474.2c59.3-.2,111.7-6.8,111.5,37.7,0,15.2-2,22-18.4,34.5,38.6,14.1,34.8,52.4,11.4,71.8-17.4,10.1-39.6,9-62.9,9.3-10.9.2-31.9.9-40.2-3.1v-2.3c4.5-3.5,9.8-4.1,17.2-5.8v-131.3l-8.1-1.9c-11-2.6-9.9-2.9-10.4-8.9h-.1ZM2366.4,1614.3c18.5.2,34.9,2.4,48.3-5.6,12.6-16.4,19.5-46.3-17.4-54.1-8.2-1.7-21.8-1.3-30.9-1.1v60.8h0ZM2366.4,1541.5c16.3.2,27.7,1.9,40-4.8,10.8-13.6,17.5-41.8-13.9-48.4-6.7-1.4-18.8-.9-26.1-.8v54h0Z"/>
  <path class="cls-1" d="M3344.7,1474.2c72.8.3,131.8-9.1,123.7,52.7-1.7,13.1-14.1,23.8-34.6,30.3,11.3,17.7,21.4,42.2,38.6,58.3,4.2,3.9,8.7,3.9,15,4.4,3.5,2.8,2.2,1.2,1.6,5.4-2.4,2.4-4.1,3.9-9.2,4.6-30.9,4.1-40.4-19.6-47.7-31.6-6.8-11.3-16.7-33.5-33.5-39.9l-4,.5c-11.1,6.7-7.1,46.2-7,57.6,8.6,1.8,17,2.3,18.4,7.8-7.6,5.1-51.1,4.9-59.3,0l.4-2.2c4.1-3.2,10.2-4.1,16.9-5.6v-131.3c-14.9-3.3-16.3-2.2-19.4-10.9h.1v-.1h0ZM3387.7,1547.8c19.7.2,32.8,1.8,47.8-6.4,14.2-14.2,18.1-43.2-11.1-52.8-8-2.7-27-1.9-36.8-1.8v61.1h.1v-.1h0Z"/>
  <path class="cls-1" d="M2921.1,990.1c71.8.3,131.2-9.3,123.7,51.9-1.6,13.5-13.9,24-34.6,31,9.9,17.2,19.1,35.2,31.8,51.8,4.5,5.9,10.8,10,21.9,11.6,2.1,2.6,1.5,2.8,1,5.7-1.6,1.3-2.4,1.9-5.1,2.6-33.8,8.4-45.6-20.9-53.2-33.4-4.5-7.3-16.5-31.5-26.3-34.9-5.5,0-11-.6-15.4.9-2.6,7.4-1.1,44.5-1,54.9,8.4,1.8,15.3,2.4,18.4,7.4-8.2,5.6-48.5,5.1-58.6.8l-.3-2.2c4.2-3.5,9.6-4.2,16.9-5.8v-131.4c-14.4-3.2-16.6-2.1-19.2-10.8h0v-.1h0ZM3011.9,1057.3c5.8-5.9,9.6-11.3,9.9-18.1,1.4-29.8-7.6-37.2-57.9-36.7v61.2c20.3,0,33,1.7,48-6.4Z"/>
  <path class="cls-1" d="M2226.4,990.1c24.2,0,56.5-1.3,79.6.6,44.3,3.6,50.5,42,39.2,61.2-6.1,10.3-14.2,15.6-30.7,21.1,9.8,17,23,43.7,39.4,59.3,3.7,3.5,9.2,3.7,15,4.1,2.2,2.5,1.5,2.8.7,5.7-5.3,3.9-18.3,5.5-25.9,3.2-19.1-5.8-26.9-24.3-33.6-35.2-5.3-8.7-13.8-30.4-28.7-33.8-6.5.2-8.3-.5-12.2,1.4-2.6,6.9-1.2,44.6-1.1,54.6,8.6,1.9,15.4,2.3,18.4,7.3l-2.5,1.8c-12.4,2.6-46.5,3.9-56.6-1.2v-2.1c4.6-3.5,9.8-4.1,17.2-5.8v-131.3c-15.2-3.7-17.6-1.8-18.2-10.9h0ZM2268.1,1063.7c21.4,0,32.6,1.7,48.1-6.5,13.7-14,17.7-41.9-9.3-52.2-8.9-3.4-27.9-2.7-38.7-2.5v61.2h-.1Z"/>
  <path class="cls-1" d="M2459.3,1474.2c34,0,96.1-6.1,113.2,14.3,18.6,22.2,18.3,55.2-24.4,68.7,12,18.5,21.2,41.7,39.1,58.6,4.4,4.2,8.8,4,15.7,4.6,2.3,3.2,1.5,1.6.5,5.5-6,5.1-18.4,5.5-27.2,3-16.9-4.9-24.3-21.7-30.1-31.3-6.1-9.5-15.1-33.5-31.3-37.2-6.4,0-7.1-.5-12,1.1-2.8,7.2-1.4,44.7-1.3,54.8,9.2,1.9,15.4,2.2,18.4,7.6l-2.7,1.8c-12.3,2.6-46,4-56.1-1.1v-2.4c4.1-3.3,10.7-4.2,17.5-5.8v-131.3c-14.8-3.2-17-2-19.4-10.9h.1ZM2501.6,1547.8c19.8.2,32.9,1.6,47.9-6,13.6-13.8,18.8-42.7-9.1-52.7-8.8-3.1-28.2-2.4-38.8-2.3v61.1h0v-.1h0Z"/>
  <path class="cls-1" d="M2618.1,1232.5c13.7,0,52.2-1.5,60.9,2.7l-.2,2.1c-5,3.6-10.7,4.3-18.5,6v58.2h72.8v-58.2c-8.5-1.9-16.2-2.5-17.4-7.9,8.2-5.1,50.3-5.1,58.2,0l-.5,2.2c-4.6,3.3-10.3,4-17.5,5.6v131.3c6.9,1.6,15.7,3,19.5,6.4-.5,3.3.5,1.9-2.8,4.3-12.8,0-48.7,1.5-57.5-2.6v-2.2c4.9-3.6,10.5-4.3,18-6v-61h-72.8v61c9,1.9,15.6,2.2,18.2,7.6-8.6,5.5-48,5.2-57.8.6v-2.2c3.7-3.4,10.1-4.3,16.9-5.9v-131.2c-14.8-3.3-16.5-2.2-19.6-10.8h.1Z"/>
  <path class="cls-1" d="M2689.6,1473.1l2.1.4c18.7,44.6,35.4,97.4,51.9,142.9,8.3,2,13.5,2.5,15.8,7.6l-2.8,1.9c-12.2,2.5-44.2,3.9-54.1-1.3v-2.5c3.8-3.2,9.1-3.9,15.6-5.5-3.4-11.3-7.4-22.4-11.3-33.7h-53.7l-11.2,33.7,1.7.4c8.5,2.2,10.5,2.2,13.4,6.7l-1.9,1.9c-10.7,2.8-38.5,4.4-46.5-1.1l.6-2.2c4.7-3.4,10.3-4,17.6-5.6,16.5-45.7,30.2-92.9,46.2-138.9l16.7-4.4v-.3h-.1ZM2656.2,1570.9h26c7,0,14.4,0,21.4-.4-2.4-8.4-20.4-67.4-25-70.2-6.9,22-14.1,49.1-22.3,70.6h-.1,0Z"/>
  <path class="cls-1" d="M3151.9,988.8c3.8,2.2,48.4,128.8,53.7,143.6,7.6,1.9,13.6,2.6,15.7,7.3-8.4,5.5-47.9,5.3-57.3.6v-2.2c3.8-3.3,9.4-4.1,16.1-5.7l-11.5-33.8h-53.5c-4,11.2-7.7,22.7-11.5,33.9,8.1,2.1,12,2.6,15.4,6.9l-2,2c-11.2,2.7-37.1,4-46.2-1l.3-2.2c4.9-3.5,10.2-4.1,17.8-5.8,11.5-43.3,31.2-95.2,45.6-139l17.4-4.5h0v-.1h0ZM3118.4,1086.8h28.3c6.3,0,11.2.7,16-1.4,3.3-4.7-17.4-62.3-21.4-70.7-8.6,22.8-15.7,48.8-22.9,72h0v.1h0Z"/>
  <path class="cls-1" d="M2766,1474.2h46.5c25.2,42.6,49.1,85.7,75,128.2v-117.4c-9.4-2-13.6-2.3-18.2-7l1.6-2.1c11-2.9,37.1-4.3,45.8,1l-.2,2.3c-3.9,3.4-9.3,4.2-16.1,5.9v144.6c-11.1-.8-22.1-1.7-26.9-8.1-9.9-13.3-17.6-27.7-25.7-41.4l-49.9-84.1v120.2c8.3,2.2,11.8,2.5,15.8,6.9l-1.3,2.1c-10.4,3.3-36.7,4.4-44.8-1l.5-2.3c4.8-3.5,9.4-3.9,17.1-5.6v-131.4c-14.8-3.2-16.6-2-19.2-10.8h0Z"/>
  <path class="cls-1" d="M3586.2,990.1h46.2c25.8,42.3,50.4,86.3,75.3,128.8v-118c-7.3-1.6-20.4-3.5-16.9-8.9,10.8-3.4,36.4-4.2,45.9.4l.2,2.4c-4.1,3.6-9.4,4.3-16.7,6.1v144.4c-12.6-.7-22.4-2-27.5-9.2-9.7-13.6-17.5-27.8-25.7-41.8l-48.8-82.1v120c8,2.1,11.3,2.5,15.3,6.6l-1.4,2.1c-10.3,3.2-36.2,4.3-44.6-.6l.3-2.2c4.1-3.3,10.9-4.3,17.6-5.9v-131.2c-14.5-3.3-17.4-2.1-19.2-10.9h0Z"/>
  <path class="cls-1" d="M2375.8,990.1h111.7c.4,6.7,3.4,28.8-3.3,33.4-6.9-2.8-6.8-12.6-10.3-19.5l-.7-1.4c-16.2-.4-38.8,0-55.5,0v56.3c53.9.9,28.5-4.2,46.6-22.3,4.3,10.4,4.1,45.3,0,55.6-6.2-6-7.6-14.7-11.1-22.1h-35.4v60.5c16.3,0,32.8.6,49.1.2,19.9-.5,8.6-13.7,18.6-20.3h4.5c3.5,2.2.3,27.6,0,32.6-19.1,0-101.5,1.9-112.4-2.6v-2.2c4.6-3.5,9.8-4.1,17.2-5.8v-131.4c-14.4-3.2-16.6-2.1-19-10.8h0v-.2h0Z"/>
  <path class="cls-1" d="M3224,1232.5h111.7c.8,10.6,1.8,21.5,1.5,32.1l-3.4.7c-14.2-2.9-1.4-11.5-13.4-19.5-11.9-1.8-40-.9-54-.8v56c49.8.8,30.5-2.2,45.6-22.2,3.3,6.8,5.2,43,2.2,49l-4.9.2c-6.1-3-1.7-10.9-9.5-15.2-7.4-1.2-24.8-.7-33.4-.6v60.6h58.2c3.8-5.9,4.2-18.5,11.5-21.4l1.1.5c4.5,6,2.1,25.9,1.7,33.5-18.9,0-103.8,2.1-113-2.7l.2-2.1c4.4-3.5,10.3-4.3,17.6-6v-131.2c-14.6-3.3-16.6-2-19.8-10.8h0l.1-.1h0Z"/>
  <path class="cls-1" d="M2940.2,1232.5c13.5,0,52.9-1.5,61.2,2.7l-.2,2.1c-4.8,3.6-10.5,4.3-18.1,6v58.2c-.2,18.8-1.4,33.9,4.6,53.1,5.1,16.2,34,29.3,57.2,15.4,22.4-13.5,18.5-47.6,18.5-66.3l-.2-60.3c-8.1-1.9-16.1-2.7-17.9-7.9,6.2-4.4,25.1-3.1,34.5-3,7.9-.2,10.9-1,16.6,2.3l-1.1,2.4c-5.2,3.7-10.5,4.3-18.4,6.1l.2,61.1c0,23.3,8.1,83.5-56.2,84.2-68.4.8-61.2-57.7-61.1-83.7l.2-61.7c-14.8-3.2-16.4-2.2-19.6-10.8h-.2v.1h0Z"/>
  <path class="cls-1" d="M2548.2,986.9c29.1-1.9,41.1,3.3,55.4,16.8,0,4.3,1.2,16.2-1.4,19.3-2,0-13.8.3-14.4-.7-3.5-6.2-15.4-30-33.1-24.8-17.5,5.1-22,17.7-21.7,28.2.9,30.1,65.6,28.6,74.2,57.1,6.1,17,6.7,34.1-8.6,49.9-8.2,8.2-18.9,11.2-34,13.4-66.7.2-67.3-38-42.7-38.8,15.3,5.2,6.9,13.3,13.8,19.5,16.1,14.4,43.4,6.8,50-6.9,19.4-40.5-37.2-39.6-65.6-65.7-12.8-11.8-9.7-34.7-2.8-47.6,5.9-10.1,14.5-15.1,30.9-19.6h0v-.1h0Z"/>
  <path class="cls-1" d="M3147.9,1229.3c29.2-2,41.6,3.3,55.6,16.8,0,5.2.5,13.2-.9,18.3-.3,1.2-2.6,1.2-5.5,1.9-18.3-3.2-14.2-24.7-37.3-26.6-22,2.6-26.7,15.7-27,26.5-1.4,33,68.6,29,75.9,62.6,5.3,24.1,4.3,54.3-48.7,59.8-30.7-1.6-55.5-9.3-52-30,.6-3.8,3.7-6.5,9.4-8.7,17.1-.3,13.8,10.4,16.7,17.2,1.9,7.6,22.2,11.3,33.7,8.2,22.8-6.2,24.9-29.5,16.9-40.7-12.7-17.7-50.4-20.9-64.8-38.3-12.2-14.8-10.4-32.1-2.8-47.5,5.3-10,15.3-15.2,30.7-19.6h.1v.1h0Z"/>
  <path class="cls-1" d="M3064.4,1474.2h110.2c.7,6.8,5.1,28.6-2.3,32.7h-3.7c-2.3-3-4.1-13.3-6.5-18.7l-.6-1.4h-54.9v56.1c51.1.9,26.8-4.6,43.9-22.2,4.2,9.5,5.5,39.4,0,48.2l-2.6.2c-5-3.4-5.1-7.7-6.3-12.2l-3.6-2.1c-9.3-1.2-21.4-.7-31.3-.6v62.1c8.7,1.8,15.9,2.3,18.4,7.5-8.6,5.5-48.9,5.3-58.6.6v-2.4c4.6-3.5,10-4.1,17.5-5.7v-131.9c-15.1-2.8-16.8-1.4-19.5-10.2h-.099Z"/>
  <path class="cls-1" d="M3219.1,990.1h131.4c-.1,8.5,4.2,28.7-5,34.2h-4.2c-2.4-3.7-3.7-13.9-6.6-20l-.7-1.4c-11.6-.4-26.7-.2-38.5-.2v129.6c8.6,1.8,15.3,2.2,18.3,7.3l-2.4,1.8c-12.3,2.6-45.4,4-55.6-1.2l.2-2.4c4.3-3.2,10.2-4,17-5.5v-129.6h-37.3c-5.2,8-3.3,19.1-10.6,22.3l-2.8-.8c-5.6-6.7-3.5-26-3.3-34.2h.1v.1h0Z"/>
  <path class="cls-1" d="M2925.1,1474.2h131.5c0,6.2.9,30.6-1,34.2l-4.2.2c-14.7-4.1-.5-12.9-12.9-21.1-6.6-1.2-28.6-.6-36.8-.6v129.5c8.8,1.9,16.7,2.3,18.2,7.8-7.9,5-50.3,5-58.6,0l.4-2.2c4.3-3.3,10.6-4.2,17.5-5.8v-129.4h-37.7c-4.8,8.6-2.8,13.5-7.1,21.2l-4.7.4-2.8-1.3c-3.7-7.1-2.2-24.8-1.9-33.1v.2h.1Z"/>
  <path class="cls-1" d="M2624.4,990.1h131.2c0,7.3,2.9,29.4-3.7,34.1h-5c-2-2.4-5.2-16.2-7.3-21.2-9.7-.5-28.8-.2-39.2-.3v129.1c6.4,2.7,16.8,2.2,19.3,7.2l-2.8,2.1c-12,2.6-46.7,4.1-56.9-.7v-2c4.9-3.6,10.3-4.3,17.9-6.1v-129.6c-9.7,0-26.8-.7-35.7.5-3.1,6.8-6.5,15.2-11.6,21.4l-4.6-.5c-2.1-5.8-1.6-27-1.6-33.9h0v-.1h0Z"/>
  <path class="cls-1" d="M3359,990.1c14.4,0,50.4-1.4,60.4,2.5l.3,2.1c-4.7,3.8-10.9,4.5-18.8,6.3v131.3c14.6,3.1,17,2.1,21,10.6-13.8,0-52.7,1.4-61.5-2.5v-2.1c4.2-3.4,10.7-4.4,17.7-6v-131.2c-14.6-3.3-17.2-2.1-19.1-10.9h0v-.1h0Z"/>
  <g>
    <path class="cls-1" d="M668,1606.3c-70.3,0-138.5-13.9-202.9-41.5-62.1-26.6-118-64.5-166-112.9s-85.7-104.6-112-167.2c-27.3-64.8-41.1-133.6-41.1-204.4s13.8-139.5,41.1-204.4c26.4-62.6,64-118.8,112-167.2s103.8-86.3,166-112.9c64.4-27.5,132.6-41.5,202.9-41.5s138.5,13.9,202.9,41.5c62.1,26.6,118,64.5,166,112.9s85.7,104.6,112,167.2c27.3,64.8,41.1,133.6,41.1,204.4s-13.8,139.5-41.1,204.4c-26.4,62.6-64,118.8-112,167.2-48,48.4-103.8,86.3-166,112.9-64.4,27.5-132.6,41.5-202.9,41.5ZM668,568.8c-68.3,0-134.7,13.6-197.3,40.3-60.4,25.8-114.7,62.8-161.4,109.8-46.7,47-83.4,101.8-109,162.7-26.5,63.1-40,129.9-40,198.8s13.5,135.8,40,198.8c25.6,60.9,62.3,115.6,109,162.7,46.7,47,101,84,161.4,109.8,62.6,26.7,128.9,40.3,197.3,40.3s134.7-13.6,197.3-40.3c60.4-25.8,114.7-62.8,161.4-109.8s83.4-101.8,109-162.7c26.5-63.1,40-129.9,40-198.8s-13.5-135.8-40-198.8c-25.6-60.9-62.3-115.6-109-162.7-46.7-47-101-84-161.4-109.8-62.6-26.7-128.9-40.3-197.3-40.3h0Z"/>
    <path class="cls-1" d="M668,1454.3c-50,0-98.5-9.9-144.3-29.5-44.2-18.9-83.9-45.9-118-80.3s-60.9-74.4-79.7-118.9c-19.4-46.1-29.2-95-29.2-145.3s9.8-99.2,29.2-145.3c18.7-44.5,45.5-84.5,79.7-118.9,34.1-34.4,73.8-61.4,118-80.3,45.8-19.6,94.3-29.5,144.3-29.5s98.5,9.9,144.3,29.5c44.2,18.9,83.9,45.9,118,80.3,34.1,34.4,60.9,74.4,79.7,118.9,19.4,46.1,29.2,95,29.2,145.3s-9.8,99.2-29.2,145.3c-18.7,44.5-45.5,84.5-79.7,118.9-34.1,34.4-73.8,61.4-118,80.3-45.8,19.6-94.3,29.5-144.3,29.5h0ZM668,720.8c-48,0-94.7,9.5-138.6,28.3-42.5,18.1-80.6,44.1-113.5,77.2-32.8,33.1-58.6,71.5-76.6,114.3-18.7,44.3-28.1,91.3-28.1,139.7s9.5,95.4,28.1,139.7c18,42.8,43.8,81.3,76.6,114.3,32.8,33.1,71,59,113.5,77.2,44,18.8,90.6,28.3,138.6,28.3s94.7-9.5,138.6-28.3c42.5-18.1,80.6-44.1,113.5-77.2,32.8-33.1,58.6-71.5,76.6-114.3,18.7-44.3,28.1-91.3,28.1-139.7s-9.5-95.4-28.1-139.7c-18-42.8-43.8-81.3-76.6-114.3-32.8-33.1-71-59-113.5-77.2-44-18.8-90.6-28.3-138.6-28.3h0Z"/>
    <path class="cls-2" d="M1085.6,1215.8c3.5,0,6.2.8,8.4,2.4,2,1.8,3,4,3,6.7s-.4,3.4-1.1,4.8c-1,2.4-2,4.5-3,6.3-1.5,2.4-2.5,4.2-2.7,5.1-.6,1-.9,1.9-.9,2.7s0,.5.4.6c.2.2.5.3.7.3.4,0,1.8-.7,4.3-2.1.9-.6,1.8-1.3,2.8-2.1,1-.8,2.2-1.6,3.5-2.4.9-.8,3-2.2,6.5-4.3,1.8-1,3.9-1.5,6.3-1.5s4,.5,5.9,1.3c1.9,1.6,3.2,2.9,3.9,4.1.9,1.6,1.4,3.2,1.4,4.9,0,3.4-1.3,5.9-3.9,7.3-2.8,1.3-6.2,1.9-10.2,1.9s-3.2,0-7.3-.4c-3.4-.3-6-.5-7.7-.5s-3.4.3-3.4.9,1,1.5,3,2.6c.4.2,1.6.8,3.6,1.8,1.2.5,2.6,1.2,4.5,2.2,2.7,1.3,5.5,3,8.3,5.1,2,2.1,3,4.1,3,6s-1.2,5-3.7,7.1c-2.3,1.8-5.2,2.7-8.7,2.7s-6.3-1.1-8-3.2c-2-2.3-3.4-5.1-4.1-8.5-1.2-4-2-6.8-2.2-8.5-.7-2.2-1.5-3.3-2.3-3.3s-1.8,1.1-2.4,3.3c-.5,2.2-1.2,5-2.2,8.5s-2.5,6.3-4.3,8.5c-1.9,2.1-4.6,3.2-8,3.2s-6.3-.9-8.7-2.7c-2.4-2-3.6-4.4-3.6-7.1s1-4.3,2.9-6c1.8-1.7,4.4-3.4,7.9-5.1,1.2-.6,2.6-1.3,4.3-2.1,1-.7,2.2-1.3,3.6-1.8,2.1-1.2,3.2-2.1,3.2-2.7s-1.1-.9-3.4-.9-4.1.2-7.3.5c-4.1.3-6.5.4-7.2.4-4.2,0-7.6-.6-10.2-1.9-2.7-1.5-4.1-3.9-4.1-7.3s.4-3.3,1.2-4.9c.7-1.2,1.9-2.6,3.9-4.1,1.8-.9,3.8-1.3,5.9-1.3s4.5.6,6.6,1.7c2.6,1.3,4.8,2.7,6.6,4.2.4.4.9.8,1.4,1.2.5.4,1,.8,1.6,1.1.5.4,1,.8,1.5,1.1.4.4.9.7,1.4,1,1.7,1.4,3,2.1,4.1,2.1,0,0,.2,0,.9-.3v-.6c0-.8-.9-2.9-2.7-6.3-.5-.8-.9-1.6-1.4-2.4-.4-.7-.8-1.4-1-2.1-.7-1.1-1.2-2.1-1.6-3.2-.8-1.6-1.1-3.2-1.1-5.1s.5-3.2,1.6-4.8c.9-1.4,2.3-2.4,4.1-3.2,1.9-.7,3.8-1,5.9-1"/>
    <path class="cls-2" d="M258.7,1215.8c3.5,0,6.2.8,8.4,2.4,2,1.8,3,4,3,6.7s-.4,3.4-1.1,4.8c-1,2.4-2,4.5-3,6.3-1.5,2.4-2.5,4.2-2.7,5.1-.6,1-.9,1.9-.9,2.7s.1.5.4.6c.2.2.5.3.7.3.4,0,1.8-.7,4.3-2.1.9-.6,1.8-1.3,2.8-2.1,1-.8,2.2-1.6,3.5-2.4.9-.8,3-2.2,6.5-4.3,1.8-1,3.9-1.5,6.3-1.5s4,.5,5.9,1.3c1.9,1.6,3.2,2.9,3.9,4.1.9,1.6,1.4,3.2,1.4,4.9,0,3.4-1.3,5.9-3.9,7.3-2.8,1.3-6.2,1.9-10.2,1.9s-3.2,0-7.3-.4c-3.4-.3-6-.5-7.7-.5s-3.4.3-3.4.9,1,1.5,3,2.6c.4.2,1.6.8,3.6,1.8,1.2.5,2.6,1.2,4.5,2.2,2.7,1.3,5.5,3,8.3,5.1,2,2.1,3,4.1,3,6s-1.2,5-3.7,7.1c-2.3,1.8-5.2,2.7-8.7,2.7s-6.3-1.1-8-3.2c-2-2.3-3.4-5.1-4.1-8.5-1.2-4-2-6.8-2.2-8.5-.7-2.2-1.5-3.3-2.3-3.3s-1.8,1.1-2.4,3.3c-.5,2.2-1.2,5-2.2,8.5s-2.5,6.3-4.3,8.5c-1.9,2.1-4.6,3.2-8,3.2s-6.3-.9-8.7-2.7c-2.4-2-3.6-4.4-3.6-7.1s1-4.3,2.9-6c1.8-1.7,4.4-3.4,7.9-5.1,1.2-.6,2.6-1.3,4.3-2.1,1-.7,2.2-1.3,3.6-1.8,2.1-1.2,3.2-2.1,3.2-2.7s-1.1-.9-3.4-.9-4.1.2-7.3.5c-4.1.3-6.5.4-7.2.4-4.2,0-7.6-.6-10.2-1.9-2.7-1.5-4.1-3.9-4.1-7.3s.4-3.3,1.2-4.9c.7-1.2,1.9-2.6,3.9-4.1,1.8-.9,3.8-1.3,5.9-1.3s4.5.6,6.6,1.7c2.6,1.3,4.8,2.7,6.6,4.2.4.4.9.8,1.4,1.2.5.4,1,.8,1.6,1.1.5.4,1,.8,1.5,1.1.4.4.9.7,1.4,1,1.7,1.4,3,2.1,4.1,2.1-.1,0,.2,0,.9-.3,0,0,0-.2.1-.3,0,0,.1-.2.1-.3,0-.8-.9-2.9-2.7-6.3-.5-.8-.9-1.6-1.4-2.4-.4-.7-.8-1.4-1-2.1-.7-1.1-1.2-2.1-1.6-3.2-.8-1.6-1.1-3.2-1.1-5.1s.5-3.2,1.6-4.8c.9-1.4,2.3-2.4,4.1-3.2,1.9-.7,3.8-1,5.9-1"/>
    <path class="cls-2" d="M1064.6,1082.4l74.6,10.6-2.8,19.8-42.3,22.9c-.9.4-2.5,1.1-5.1,2-2.5.9-5.5,1.9-9,2.9,3.1,0,5.9,0,8.4.3,2.4,0,4.6.4,6.5.6l36.8,5.2-2.7,19.7-74.6-10.6,2.7-19.7,42.5-22.9c.9-.5,2.6-1.2,5.1-2.1s5.5-1.9,8.9-2.9c-3.2,0-6,0-8.4-.3-2.4,0-4.6-.4-6.5-.6l-36.8-5.2,2.8-19.8h0l-.1.1ZM1053.8,997.2l78.2,15.4,3.6,25.7-70.9,36.5-2.8-20.4,12.8-5.7-4.1-29.1-13.9-2-2.8-20.4h-.1,0ZM1085.7,1021.9l2.8,20.4,23.5-11.1c.7-.3,1.9-.8,3.5-1.5s3.7-1.5,6.2-2.5c-1.9-.2-3.7-.4-5.4-.6-1.7-.2-3.4-.4-5-.6l-25.7-4.1h.1ZM1046.6,970.3l73.1-18.4,5,20.3-73.1,18.4-5-20.3ZM1030.6,924.2l52.9-22.6-6.6-15.6,16.4-7,21.2,50.3-16.4,7-6.6-15.6-52.9,22.6-8-19h0v-.1h0ZM1020.3,851.3c-1.5,4.4-2.2,8.4-2.2,11.8s.7,6.5,2.2,9c1.4,2.4,3.1,4,5.3,4.8,2.2.8,4.2.6,6.2-.5,2.2-1.3,3.5-2.9,3.9-4.9s0-5.7-1.5-11.1c-2-7.4-2.3-13.3-1.1-17.6,1.2-4.3,4.3-7.8,9.1-10.6,6.2-3.6,12.5-4.5,18.9-2.6,6.3,1.9,11.4,6.2,15.3,12.9,2.1,3.6,3.6,7.3,4.5,11.1s1.2,7.7.9,11.8l-16,1.8c.6-3,.7-5.9.3-8.5-.4-2.6-1.1-5-2.3-7.1-1.2-2.2-2.8-3.6-4.5-4.4-1.8-.8-3.5-.7-5.1.3s-2.6,2.3-2.9,4.1,0,4.6,1.1,8.5c0,.3,0,.6.2.9,2.2,8.4,2.8,14.5,1.8,18.2-.7,2.5-2,4.8-3.7,6.9-1.8,2.1-4,4-6.8,5.5-6.9,4-13.8,5-20.6,2.8-6.8-2.1-12.4-7-16.8-14.6-2.6-4.6-4.2-9.2-4.9-13.8-.6-4.7-.3-9.7,1.1-15.1l17.9.4h-.3ZM974.8,830.6l58.5-47.7,13,16.2-58.5,47.7-13-16.2h0ZM970.4,765.2l2.7,2.7c3.1,3.2,5.9,4.9,8.5,5.3,2.5.4,4.9-.6,7.2-2.9,2.7-2.7,3.9-5.3,3.7-7.8s-1.9-5.3-5.1-8.5l-2.9-2.9-14,14.1h-.1ZM928.7,779.8l53.2-53.6,15.2,15.3c5.9,6,9.8,10.4,11.6,13.3,1.8,2.9,2.9,5.9,3.3,8.9.5,3.4,0,6.8-1.1,10.1-1.2,3.3-3.2,6.3-5.9,9.1-4.1,4.2-8.5,6.5-13.1,7.1s-9.3-.7-14-3.7l-7,36.2-16.4-16.5,8.6-33.3-20.8,21-13.6-13.7v-.2h0ZM860.9,729.9l43.2-62.1,16.8,11.9-16.8,24.2,22.4,15.8,16.8-24.2,16.9,11.9-43.2,62.1-16.9-11.9,17.6-25.3-22.4-15.8-17.6,25.3-16.8-11.9ZM879,657.7l-9.1,20.6c-1.3-4-2.9-7.3-4.9-9.8s-4.4-4.4-7.3-5.7c-5.4-2.4-10.6-2.5-15.5-.3-5,2.2-8.8,6.3-11.4,12.3-2.5,5.6-2.8,10.9-1,16.1,1.8,5.2,5.3,9,10.6,11.3,2.9,1.3,5.9,1.9,9.1,1.7,3.1-.2,6.6-1.2,10.5-2.9l-9.1,20.7c-3.6,0-7.1,0-10.3-.7-3.3-.6-6.4-1.6-9.4-2.9-3.8-1.7-7-3.7-9.8-6s-5.1-5-7-8c-3.6-5.8-5.6-11.9-5.9-18.4-.4-6.5.9-13,3.8-19.6,2.3-5.3,5.3-9.7,9-13.3,3.6-3.6,7.9-6.4,12.9-8.3,4.7-1.9,9.5-2.8,14.4-2.6,4.8.2,9.7,1.4,14.8,3.6,3,1.3,5.8,3,8.4,5.1,2.6,2,5.1,4.5,7.4,7.3l-.2-.2h0ZM711.3,665.7l3.4.5c8,1.1,14.1.3,18.2-2.5,4.1-2.8,6.7-7.8,7.7-15s0-12.7-3.3-16.6c-3.2-3.9-8.8-6.4-16.8-7.5l-3.4-.5-5.8,41.5h0v.1h0ZM688.8,679.7l10.5-75.1,15.5,2.2c11.6,1.6,19.7,3.3,24.4,5.1,4.6,1.8,8.6,4.2,11.9,7.3,4.2,4,7.2,8.7,9,14.3,1.7,5.5,2.1,11.6,1.2,18.2-.9,6.6-3,12.4-6.1,17.2-3.2,4.8-7.3,8.6-12.5,11.2-3.9,2-8.3,3.2-13.1,3.7-4.8.4-12,0-21.7-1.4l-3.4-.5-15.5-2.2h-.2ZM629.1,680.7v-75.9h46.1v16.6h-26.1v13.2h24.6v16.3h-24.6v12.8h26.1v17h-46.1ZM617.8,681.6l-18.7,4.3-11.6-31c-.8-2.2-1.7-4.6-2.5-7.3-.9-2.7-1.8-5.7-2.8-8.9.3,3.2.2,7.4,0,12.3,0,1.1,0,1.8-.2,2.3l-2,37-13.3,3.1-17.9-32.3c-.2-.4-.6-1.1-1.1-2-2.5-4.3-4.3-8-5.4-11,.4,2.8.8,5.7,1.2,8.5s.7,5.6.9,8.4l3,33-18.6,4.3-5.6-76.5,19.8-4.6,19.8,35.5c0,.2.4.7.7,1.2,1.8,3.2,3.1,5.9,4,8.3-.2-1.3-.3-2.9-.3-4.5s0-3.7.2-6.1l2.5-40.6,19.8-4.6,28.2,71.3h-.1v-.1h0ZM478.7,727.3l-30.6-69.3,42.1-18.9,6.7,15.2-23.9,10.7,5.3,12,22.5-10.1,6.6,14.9-22.5,10.1,5.2,11.7,23.9-10.7,6.9,15.5-42.1,18.9h-.1ZM428.9,759.2l-39.9-64.3,39.1-24.6,8.7,14.1-22.2,13.9,6.9,11.2,20.9-13.2,8.6,13.8-20.9,13.2,6.7,10.9,22.2-13.9,8.9,14.4-39.1,24.6h0l.1-.1h0ZM372.8,787.8l2.5-2.4c5.9-5.5,9.1-10.8,9.5-15.8.5-5-1.8-10.1-6.7-15.4-4.9-5.3-9.9-7.9-14.9-7.9s-10.5,2.9-16.4,8.4l-2.5,2.4,28.4,30.7h.1ZM369.4,814.2l-51.4-55.5,11.5-10.8c8.6-8,15-13.3,19.3-15.8s8.7-4.1,13.1-4.7c5.8-.8,11.3-.2,16.6,2,5.4,2.1,10.3,5.7,14.8,10.5,4.5,4.9,7.7,10.1,9.4,15.7,1.7,5.5,2,11.1.8,16.9-.9,4.4-2.7,8.5-5.4,12.6-2.7,4-7.6,9.4-14.8,16.1l-2.5,2.4-11.5,10.8v-.2h.1ZM333.8,863l-60.9-44.6,27.1-37.6,13.3,9.8-15.4,21.3,10.6,7.7,14.5-20.1,13.1,9.6-14.5,20.1,10.3,7.5,15.4-21.3,13.6,10-27.1,37.6ZM276.2,887l1.8-3.4c2.1-3.9,2.9-7.2,2.5-9.7s-2-4.6-4.8-6.1c-3.3-1.8-6.1-2.2-8.5-1.3-2.3.9-4.5,3.4-6.6,7.4l-1.9,3.7,17.5,9.4h0ZM302.2,922.9l-66.5-35.6,10.1-19.1c3.9-7.5,7-12.5,9.3-15.1,2.2-2.6,4.7-4.5,7.4-5.8,3.1-1.4,6.4-2,9.9-1.8s6.9,1.2,10.3,3.1c5.1,2.8,8.7,6.3,10.5,10.5,1.9,4.3,2.1,9.1.5,14.6l36.4-3.9-10.9,20.6-34.1,1.4,26,13.9-9,17.1h.1v.1ZM276.1,1013.5l-73.4-17.1,10.4-45.3,16.1,3.7-5.9,25.6,12.7,3,5.5-24.2,15.7,3.7-5.5,24.2,12.4,2.9,5.9-25.6,16.4,3.8-10.4,45.3h.1ZM272.1,1098.2l-75.3-1.3.4-20.7,29.3.5.5-27.6-29.3-.5.4-20.7,75.3,1.3-.4,20.7-30.6-.5-.5,27.6,30.6.5-.4,20.7ZM277.4,1145.8l-56.9,8.1,2.3,16.8-17.6,2.5-7.6-54.1,17.6-2.5,2.3,16.8,56.9-8.1,2.9,20.5h.1Z"/>
    <path class="cls-2" d="M668,742.2c-184.9,0-335.7,151.9-335.7,338.2s150.8,338.2,335.7,338.2,335.6-151.9,335.6-338.2-150.8-338.2-335.6-338.2h0ZM799.2,1206c-25.5,1.7-53.3-13-80-26-6.5,10.9-15.1,21.9-23.1,31.7-5.5,6.6-12.1,11.8-18.5,16.9-3.6,2.8-5.8,17.2-9.1,20.1-4.1-3.2-8.9-21.2-12.8-24.7-5-4.6-12.5-5.4-16.8-10.8-5.6-6.9-11.6-15.1-15.6-23.8-6-9.2-7.2-12.7-9.7-8.8-4.6,7-42.3,25-58.4,26.3-3.9.3-6.7.6-8.7.8-2,.5-8.5.8,0,0,1.2-.3.8-.8-5.4-1.1-20.8-1.2-32.4-9.1-57.3-17.6-51.5-25.1-84-55.6-121-92.1,5.8.5,17,4.5,31.9,8.5,11.9,3.2,26.7,2.6,32-.3-6.1-7.9-13.7-13.3-18.4-12.7,8.1-5.7,18.4-2.1,30.1,1.9,12.2,4.2,40.1,7.8,15.8-12.8-1.6.5-7.2-.7,0-1.2,10.3-.7,12.9,1.9,18.7,3.5,26.9,7.5,31.3.8,14.8-19.6-.6,0-1.2-.3-1.9-.4h1.6c.1.2.2.3.3.4,88.2,19.3,16.6-20.2,38-13.4,7.7,2.4,7.6.9,29.3,4.5,18.5,3,28.4-.6,25-2.8-16.8-10.9-20.4-11.6-17.6-12.8,4.8-2.2,27.8-.6,38.7-3.5,6-1.6,5.1-.6,4.1-2.6l-37.4-78.6c2.4-16.3,15.2-16.5,31.3-12.4,4.4,1.1,7.1,5.4,10.7,2.2,11.9-10.6,28.5-3.1,33.1-.6,3.6,2,11.5-4.1,13.9-3.4,4.9,1.6,14.3-1.2,22.3,3.2,6,3.2,7.4-.2,14.9-2,10.6-2.5,22.9,4.5,29.2,5.2,4.6.5,1.5,2.2,9.5-2.1,9.7-5.2,28.4-4.4,36.3,8l-38.1,83,1.5-.2c.8-.9,1.6-1.5,1.2-.2l-1.2.2c-1,1.1-2,2.7-1.2,2.3,8,4.1,36.8,2.8,46.1,3.1.4.3.8.5,1.2.7,3.6-1.4,4.2,2.3,0,0-.4.2-.9.4-1.4.7-6.2,3.8-25.4,14.8,9.1,11.2,2.2-.2,16.8-1.7,20.3-2.5,8.7-2-5.4,2.8,3.8.9-14,19.2-9.1,20,31.7,14.3,16.2-2.3-1.1,2.9,6.5,2.3-22.5,17.2-8.9,15.7,4.1,17.4,6.5.9,15.4-3.3,34.9-4.1-12.2,11.9-28.4,21.8,36.9,10.5-8.1,4.3-11.1,11.8-11.1,13.7.2,5.8,31.2-2.7,59.5-9.9-50.1,49.9-108.8,105.3-174,109.6h.4v-.1h0Z"/>
    <path class="cls-1" d="M668,1658.8c-77.3,0-152.4-15.3-223.2-45.6-68.3-29.2-129.8-71-182.5-124.2-52.8-53.2-94.2-115.1-123.2-183.9-30-71.3-45.2-146.9-45.2-224.8s15.2-153.5,45.2-224.8c29-68.8,70.4-130.7,123.2-183.9,52.8-53.2,114.2-95,182.5-124.2,70.8-30.3,145.9-45.6,223.2-45.6s152.4,15.3,223.2,45.6c68.3,29.2,129.8,71,182.6,124.2s94.2,115.1,123.2,183.9c30,71.3,45.2,146.9,45.2,224.8s-15.2,153.5-45.2,224.8c-29,68.8-70.4,130.7-123.2,183.9-52.8,53.2-114.2,95-182.6,124.2-70.8,30.3-145.9,45.6-223.2,45.6h0ZM668,523.4c-74.4,0-146.6,14.8-214.8,43.9-65.8,28.1-124.9,68.3-175.7,119.6-50.8,51.2-90.8,110.8-118.7,177.1-28.9,68.6-43.6,141.5-43.6,216.5s14.7,147.8,43.6,216.5c27.9,66.3,67.8,125.9,118.7,177.1,50.8,51.2,110,91.4,175.7,119.6,68.1,29.1,140.4,43.9,214.8,43.9s146.6-14.8,214.8-43.9c65.8-28.1,124.9-68.3,175.7-119.6,50.8-51.2,90.8-110.8,118.7-177.1,28.9-68.6,43.6-141.5,43.6-216.5s-14.7-147.8-43.6-216.5c-27.9-66.3-67.8-125.9-118.7-177.1-50.8-51.2-110-91.4-175.7-119.6-68.1-29.1-140.4-43.9-214.8-43.9h0Z"/>
    <path class="cls-2" d="M1018.6,1377.7l2.1-2.7c5-6.4,7.3-12.1,7-17.1s-3.3-9.7-9-14.2c-5.7-4.5-11-6.3-15.9-5.4s-9.9,4.5-14.9,10.9l-2.1,2.7,32.8,25.8h0ZM1019.4,1404.3l-59.4-46.8,9.7-12.5c7.2-9.3,12.7-15.5,16.6-18.7,3.8-3.2,7.9-5.4,12.2-6.7,5.6-1.7,11.1-1.9,16.8-.7,5.6,1.3,11.1,4,16.3,8.1,5.3,4.1,9.2,8.8,11.8,14,2.6,5.2,3.7,10.7,3.4,16.6-.2,4.5-1.4,8.9-3.4,13.3s-6.1,10.5-12.1,18.3l-2.1,2.8-9.7,12.5v-.2h-.1ZM969.6,1428.3c4.2-3.8,6.3-8.6,6.3-14.2s-2.2-10.9-6.5-15.7c-4.2-4.7-9.1-7.4-14.8-8-5.6-.6-10.5,1-14.7,4.7-4.2,3.8-6.3,8.6-6.3,14.3s2.2,10.9,6.4,15.6c4.3,4.8,9.2,7.6,14.7,8.2s10.4-1,14.7-4.9h.2,0ZM984.7,1384.5c3.6,4.1,6.3,8.5,8,13.4s2.4,10,2,15.4-1.7,10.5-4.1,15.3c-2.3,4.8-5.5,9-9.4,12.6-4,3.6-8.5,6.4-13.5,8.2-5,1.8-10.1,2.6-15.4,2.3-5.4-.2-10.4-1.4-15.1-3.6-4.7-2.2-8.8-5.3-12.4-9.3-3.6-4-6.3-8.5-8-13.4s-2.3-10.1-2-15.5c.3-5.3,1.6-10.4,3.9-15.2,2.3-4.8,5.5-9,9.5-12.7,4-3.6,8.5-6.3,13.5-8.2,5.1-1.8,10.2-2.6,15.5-2.4s10.3,1.5,15,3.7,8.8,5.3,12.4,9.4h.1ZM892,1468.5l-7.9-13.8,35-20.3c.3.4.6.9.9,1.4.3.5.8,1.3,1.4,2.4,6.5,11.3,8.6,21.9,6.2,31.5-2.4,9.7-8.9,17.7-19.7,23.9-5.3,3.1-10.5,5-15.5,5.8s-10.1.5-15.2-.9c-4.9-1.3-9.4-3.7-13.6-7-4.2-3.3-7.6-7.3-10.3-12-2.8-4.9-4.6-9.9-5.3-15s-.3-10.2,1.1-15.5c1.4-5.1,3.8-9.7,7.1-13.8,3.3-4.1,7.4-7.6,12.3-10.4,6.4-3.7,12.8-5.7,19.1-6.1,6.4-.3,12.7,1.1,18.9,4.1l-11.2,16.4c-3.3-1.5-6.5-2.2-9.5-2.1s-6,1-8.8,2.6c-5.3,3.1-8.5,7.3-9.5,12.7-1,5.4.3,11.2,3.8,17.4,3.6,6.3,8,10.3,13.1,12.1,5.1,1.8,10.3,1.2,15.7-1.9,4.5-2.6,7.6-5.9,9.4-9.9,1.7-4,1.8-8,.2-12l-17.7,10.3h0v.1h0ZM789.5,1541.3l-20.8-73,44.4-12.8,4.6,16-25.1,7.3,3.6,12.7,23.7-6.8,4.5,15.7-23.7,6.8,8.2,28.7-19.3,5.6v-.2h-.1ZM736.1,1535.7c5.6-.8,10-3.5,13.1-8.2s4.2-10.3,3.3-16.6c-.9-6.3-3.5-11.3-7.8-15s-9.3-5.1-14.8-4.3c-5.6.8-10,3.6-13.1,8.3-3.1,4.7-4.2,10.3-3.3,16.6.9,6.4,3.4,11.5,7.7,15.1,4.2,3.6,9.2,5,15,4.2h-.1v-.1h0ZM772.9,1507.9c.8,5.4.5,10.6-.8,15.6s-3.6,9.6-6.8,13.9c-3.3,4.2-7.3,7.7-11.9,10.4-4.6,2.7-9.6,4.4-14.8,5.2-5.3.8-10.6.5-15.7-.8-5.2-1.3-9.9-3.6-14.1-6.7-4.4-3.2-7.9-7-10.5-11.5s-4.3-9.4-5.1-14.7c-.8-5.4-.5-10.6.9-15.6,1.3-5,3.7-9.7,7-14,3.2-4.2,7.1-7.7,11.7-10.4,4.6-2.7,9.6-4.4,14.9-5.2,5.3-.8,10.5-.5,15.7.8s9.9,3.6,14.2,6.7c4.3,3.2,7.7,7,10.4,11.5,2.6,4.5,4.3,9.4,5.1,14.8h-.2ZM583.9,1549l10.5-75.2,20.4,2.9-4.1,29.2,27.1,3.8,4.1-29.2,20.4,2.9-10.5,75.2-20.4-2.9,4.3-30.6-27.1-3.8-4.3,30.6-20.4-2.9ZM592,1477l-6.2,21.8c-1.8-3.8-3.9-6.8-6.2-9s-5-3.7-8-4.6c-5.7-1.6-10.8-1-15.5,1.9-4.6,2.9-7.8,7.5-9.6,13.8-1.7,5.9-1.3,11.2,1.2,16.1s6.5,8.1,12,9.7c3.1.9,6.2,1,9.2.4,3.1-.6,6.4-2.1,10-4.4l-6.2,21.8c-3.6.6-7,.9-10.3.7-3.3,0-6.6-.7-9.7-1.6-4-1.1-7.5-2.7-10.6-4.6s-5.8-4.2-8-7c-4.4-5.2-7.2-11-8.4-17.4-1.3-6.4-.9-13,1.1-20,1.6-5.6,3.9-10.4,7-14.5s7-7.4,11.7-10.1c4.4-2.6,9.1-4.1,13.9-4.6,4.8-.5,9.8,0,15.1,1.5,3.2.9,6.2,2.2,9.1,3.9,2.9,1.7,5.7,3.7,8.4,6.1h0v.1h0ZM486.8,1474.3l3.5,1.6c4,1.9,7.3,2.6,9.8,2.1s4.4-2.2,5.8-5.2c1.6-3.5,1.9-6.3.8-8.6-1-2.3-3.6-4.4-7.7-6.3l-3.7-1.8-8.4,18.1h0l-.1.1h0ZM452.5,1502.4l31.9-68.9,19.5,9.1c7.6,3.6,12.8,6.4,15.4,8.5,2.7,2.1,4.7,4.5,6.1,7.2,1.6,3,2.4,6.3,2.3,9.9,0,3.5-.9,7.1-2.5,10.6-2.5,5.3-5.8,9.1-9.9,11.2-4.1,2.1-9,2.6-14.4,1.3l5.8,36.5-21.1-9.9-3.2-34.3-12.5,27-17.5-8.2h.1ZM423,1394.7l17.2,11.2-20,31c-2.9,4.6-4.9,7.9-6,10-1,2.1-1.7,4-2,5.8-.4,2,0,4.1,1,6,1.1,1.9,2.8,3.7,5.2,5.2,2.4,1.5,4.6,2.4,6.8,2.6,2.2.2,4.1-.3,5.9-1.5,1.4-1,2.9-2.4,4.4-4.2,1.5-1.8,3.7-5,6.7-9.6l2.8-4.4,17.2-26.6,17.1,11.2-21.7,33.7c-4.5,7-8.2,11.9-11.2,14.6-3,2.8-6.2,4.7-9.7,5.7-3.8,1.2-8,1.2-12.6,0s-9.6-3.5-15-7.1c-5.4-3.5-9.6-7.2-12.5-10.9-2.9-3.7-4.7-7.6-5.2-11.6-.4-3.6,0-7.4,1.3-11.3s4.2-9.3,8.7-16.3l4.3-6.6,17.4-27.1v.2h-.1,0ZM321,1400.4l52.4-54.7,14.8,14.4-20.4,21.2,19.7,19.2,20.4-21.2,14.8,14.4-52.4,54.6-14.8-14.4,21.3-22.2-19.7-19.2-21.3,22.2-14.8-14.4h0v.1ZM368.6,1346.2l-18.4,13c1-4.1,1.2-7.8.8-10.9-.4-3.1-1.5-6.1-3.4-8.7-3.4-4.9-7.8-7.7-13.2-8.3-5.4-.7-10.8.8-16.1,4.6-5,3.5-8,7.9-9.1,13.3s0,10.4,3.3,15.2c1.8,2.6,4.2,4.7,7,6.1,2.8,1.5,6.3,2.5,10.5,3l-18.4,13c-3.2-1.8-6-3.8-8.5-6s-4.7-4.7-6.6-7.4c-2.4-3.4-4.1-6.8-5.3-10.3-1.2-3.4-1.8-7-1.9-10.5-.1-6.8,1.3-13.1,4.3-18.9s7.5-10.7,13.3-14.9c4.7-3.3,9.6-5.6,14.5-6.8,4.9-1.2,10.1-1.3,15.4-.4,5.1.8,9.6,2.6,13.7,5.2,4,2.6,7.7,6.2,10.8,10.8,1.9,2.7,3.4,5.6,4.6,8.7s2.1,6.5,2.7,10.1h0v.1h0Z"/>
  </g>
</svg>