<?xml version="1.0" encoding="UTF-8"?>
<svg id="Layer_1" data-name="Layer 1" xmlns="http://www.w3.org/2000/svg" xmlns:xlink="http://www.w3.org/1999/xlink" version="1.1" viewBox="0 0 3840 2161">
  <defs>
    <style>
      .cls-1 {
        fill: #39311a;
      }

      .cls-1, .cls-2, .cls-3, .cls-4, .cls-5, .cls-6, .cls-7 {
        stroke-width: 0px;
      }

      .cls-2 {
        fill: #a1954f;
      }

      .cls-3 {
        fill: #d32027;
      }

      .cls-4 {
        fill: url(#radial-gradient);
      }

      .cls-4, .cls-5, .cls-6 {
        fill-rule: evenodd;
      }

      .cls-5 {
        fill: #00a44f;
      }

      .cls-6, .cls-7 {
        fill: #fff;
      }
    </style>
    <radialGradient id="radial-gradient" cx="-74.5" cy="-1644.3" fx="-74.5" fy="-1644.3" r="433.5" gradientTransform="translate(730.8 2374.7) scale(.8)" gradientUnits="userSpaceOnUse">
      <stop offset="0" stop-color="#2d368e"/>
      <stop offset="1" stop-color="#241f61"/>
    </radialGradient>
  </defs>
  <g>
    <path class="cls-2" d="M1743.1,778.9h87v234.5h217.7v86.9h-217.7v549.3h-87v-549.3h-217.9v-86.9h217.9v-234.5h0Z"/>
    <path class="cls-2" d="M1783,510.9c2.2.8,88.6,64.6,96.1,70l399.5,290.3v107.8c-55.5-39-111.2-80.7-165.8-120.3l-324.4-235.7-3.6-2.1c-4.7.9-8.9,3.9-12,6.2-49.2,36.6-99.6,72.8-149.5,109.1l-328.9,239v-107.9l343-249.4,94.9-68.8c13-9.4,41-28.7,50.6-38.1h0l.1-.1h0Z"/>
    <path class="cls-2" d="M2121.1,982.9h87.5v666.8h-296.3v-87.3h208.8v-579.4h0v-.1h0Z"/>
    <path class="cls-2" d="M1354.4,982.9h87.4v579.4h208.8v87.3h-296.2v-666.8h0v.1h0Z"/>
  </g>
  <path class="cls-1" d="M3253.7,1471.1c78.9-3.8,81.5,71.9,76,100.6-4.3,22.5-14.3,50.8-57.7,58.5-35.3,1.9-56.3-10.5-66.7-28.5-19.3-33.5-26.1-117,48.4-130.6ZM3267.8,1618.5c32.8-10.3,36.5-42.2,37.2-61.1.7-18.8,1.6-74.8-48-74.9-34.9,9.8-37.3,44.2-37.9,63.5-.6,18.5-.4,73.1,48.7,72.5Z"/>
  <path class="cls-1" d="M2831.8,986.9c77.7-1.1,79.3,70.7,74.2,100.3-4,23.3-14.3,50.9-58.7,59-83.8,1.5-81.2-70.8-76.1-102.6,3.6-22.2,17.6-50.2,60.6-56.6h0v-.1h0ZM2846.9,1133.9c44.5-17.4,37.2-83.6,27.2-110-5.2-13.6-16.6-26.5-44.5-24.8-33.4,13.3-34.5,49.7-34.2,70.6.3,17.5,3,68.3,51.5,64.1h0v.1Z"/>
  <path class="cls-1" d="M3497.4,986.9c76-1.1,78.9,67.7,74.7,96.9-3.5,24.3-12.8,53.5-59.1,62.3-81.1,1.3-80.6-65.1-77.3-96.7,2.5-23.4,15.6-55.7,61.6-62.5h.1ZM3512.7,1133.8c44.6-17.8,37.2-85.2,26-111.9-5.6-13.3-17-24.1-43.5-22.8-33.6,13.3-34.5,49.7-34.2,70.7.2,17.5,3.1,68.7,51.7,64Z"/>
  <path class="cls-1" d="M2850.6,1229.3c77.3-2.6,80.5,67.3,76.3,96.6-3.4,23.9-12.7,53.8-58.4,62.4-38.7,1.5-59-12.6-68.8-32.2-16.3-32.9-22.9-113.9,50.8-126.8h.1,0ZM2865.7,1376.4c15.1-5.1,19.7-10.3,25.5-19.7,13.4-21.9,26-117.1-39-115.8-35.3,11.8-36.1,47.8-36.4,68.3-.3,17.3,2.2,70.5,49.9,67.2Z"/>
  <path class="cls-1" d="M3495.3,1474.2c28,0,80.5-3.4,100.3,7.4,52.3,28.5,47.5,107.1,4.3,136.7-12,6.2-24.9,8.7-41,8.9-13.5.2-51.7,2.2-61.7-2.7v-2.2c4.2-3.6,9.8-4.3,17.2-6v-131.2c-15-3.3-16.7-2.1-19.1-11.1v.2h0ZM3536.9,1614.3c24.6.2,34.6,2.3,51.4-8.6,15.9-16.5,19.1-36.6,18.3-55.1-.9-21.4-1-50.1-35-63.7h-34.7v127.4h0Z"/>
  <path class="cls-1" d="M2325.4,1474.2c59.3-.2,111.7-6.8,111.5,37.7,0,15.2-2,22-18.4,34.5,38.6,14.1,34.8,52.4,11.4,71.8-17.4,10.1-39.6,9-62.9,9.3-10.9.2-31.9.9-40.2-3.1v-2.3c4.5-3.5,9.8-4.1,17.2-5.8v-131.3l-8.1-1.9c-11-2.6-9.9-2.9-10.4-8.9h-.1ZM2366.4,1614.3c18.5.2,34.9,2.4,48.3-5.6,12.6-16.4,19.5-46.3-17.4-54.1-8.2-1.7-21.8-1.3-30.9-1.1v60.8h0ZM2366.4,1541.5c16.3.2,27.7,1.9,40-4.8,10.8-13.6,17.5-41.8-13.9-48.4-6.7-1.4-18.8-.9-26.1-.8v54h0Z"/>
  <path class="cls-1" d="M3344.7,1474.2c72.8.3,131.8-9.1,123.7,52.7-1.7,13.1-14.1,23.8-34.6,30.3,11.3,17.7,21.4,42.2,38.6,58.3,4.2,3.9,8.7,3.9,15,4.4,3.5,2.8,2.2,1.2,1.6,5.4-2.4,2.4-4.1,3.9-9.2,4.6-30.9,4.1-40.4-19.6-47.7-31.6-6.8-11.3-16.7-33.5-33.5-39.9l-4,.5c-11.1,6.7-7.1,46.2-7,57.6,8.6,1.8,17,2.3,18.4,7.8-7.6,5.1-51.1,4.9-59.3,0l.4-2.2c4.1-3.2,10.2-4.1,16.9-5.6v-131.3c-14.9-3.3-16.3-2.2-19.4-10.9h.1v-.1h0ZM3387.7,1547.8c19.7.2,32.8,1.8,47.8-6.4,14.2-14.2,18.1-43.2-11.1-52.8-8-2.7-27-1.9-36.8-1.8v61.1h.1v-.1h0Z"/>
  <path class="cls-1" d="M2921.1,990.1c71.8.3,131.2-9.3,123.7,51.9-1.6,13.5-13.9,24-34.6,31,9.9,17.2,19.1,35.2,31.8,51.8,4.5,5.9,10.8,10,21.9,11.6,2.1,2.6,1.5,2.8,1,5.7-1.6,1.3-2.4,1.9-5.1,2.6-33.8,8.4-45.6-20.9-53.2-33.4-4.5-7.3-16.5-31.5-26.3-34.9-5.5,0-11-.6-15.4.9-2.6,7.4-1.1,44.5-1,54.9,8.4,1.8,15.3,2.4,18.4,7.4-8.2,5.6-48.5,5.1-58.6.8l-.3-2.2c4.2-3.5,9.6-4.2,16.9-5.8v-131.4c-14.4-3.2-16.6-2.1-19.2-10.8h0v-.1h0ZM3011.9,1057.3c5.8-5.9,9.6-11.3,9.9-18.1,1.4-29.8-7.6-37.2-57.9-36.7v61.2c20.3,0,33,1.7,48-6.4Z"/>
  <path class="cls-1" d="M2226.4,990.1c24.2,0,56.5-1.3,79.6.6,44.3,3.6,50.5,42,39.2,61.2-6.1,10.3-14.2,15.6-30.7,21.1,9.8,17,23,43.7,39.4,59.3,3.7,3.5,9.2,3.7,15,4.1,2.2,2.5,1.5,2.8.7,5.7-5.3,3.9-18.3,5.5-25.9,3.2-19.1-5.8-26.9-24.3-33.6-35.2-5.3-8.7-13.8-30.4-28.7-33.8-6.5.2-8.3-.5-12.2,1.4-2.6,6.9-1.2,44.6-1.1,54.6,8.6,1.9,15.4,2.3,18.4,7.3l-2.5,1.8c-12.4,2.6-46.5,3.9-56.6-1.2v-2.1c4.6-3.5,9.8-4.1,17.2-5.8v-131.3c-15.2-3.7-17.6-1.8-18.2-10.9h0ZM2268.1,1063.7c21.4,0,32.6,1.7,48.1-6.5,13.7-14,17.7-41.9-9.3-52.2-8.9-3.4-27.9-2.7-38.7-2.5v61.2h-.1Z"/>
  <path class="cls-1" d="M2459.3,1474.2c34,0,96.1-6.1,113.2,14.3,18.6,22.2,18.3,55.2-24.4,68.7,12,18.5,21.2,41.7,39.1,58.6,4.4,4.2,8.8,4,15.7,4.6,2.3,3.2,1.5,1.6.5,5.5-6,5.1-18.4,5.5-27.2,3-16.9-4.9-24.3-21.7-30.1-31.3-6.1-9.5-15.1-33.5-31.3-37.2-6.4,0-7.1-.5-12,1.1-2.8,7.2-1.4,44.7-1.3,54.8,9.2,1.9,15.4,2.2,18.4,7.6l-2.7,1.8c-12.3,2.6-46,4-56.1-1.1v-2.4c4.1-3.3,10.7-4.2,17.5-5.8v-131.3c-14.8-3.2-17-2-19.4-10.9h.1ZM2501.6,1547.8c19.8.2,32.9,1.6,47.9-6,13.6-13.8,18.8-42.7-9.1-52.7-8.8-3.1-28.2-2.4-38.8-2.3v61.1h0v-.1h0Z"/>
  <path class="cls-1" d="M2618.1,1232.5c13.7,0,52.2-1.5,60.9,2.7l-.2,2.1c-5,3.6-10.7,4.3-18.5,6v58.2h72.8v-58.2c-8.5-1.9-16.2-2.5-17.4-7.9,8.2-5.1,50.3-5.1,58.2,0l-.5,2.2c-4.6,3.3-10.3,4-17.5,5.6v131.3c6.9,1.6,15.7,3,19.5,6.4-.5,3.3.5,1.9-2.8,4.3-12.8,0-48.7,1.5-57.5-2.6v-2.2c4.9-3.6,10.5-4.3,18-6v-61h-72.8v61c9,1.9,15.6,2.2,18.2,7.6-8.6,5.5-48,5.2-57.8.6v-2.2c3.7-3.4,10.1-4.3,16.9-5.9v-131.2c-14.8-3.3-16.5-2.2-19.6-10.8h.1Z"/>
  <path class="cls-1" d="M2689.6,1473.1l2.1.4c18.7,44.6,35.4,97.4,51.9,142.9,8.3,2,13.5,2.5,15.8,7.6l-2.8,1.9c-12.2,2.5-44.2,3.9-54.1-1.3v-2.5c3.8-3.2,9.1-3.9,15.6-5.5-3.4-11.3-7.4-22.4-11.3-33.7h-53.7l-11.2,33.7,1.7.4c8.5,2.2,10.5,2.2,13.4,6.7l-1.9,1.9c-10.7,2.8-38.5,4.4-46.5-1.1l.6-2.2c4.7-3.4,10.3-4,17.6-5.6,16.5-45.7,30.2-92.9,46.2-138.9l16.7-4.4v-.3h-.1ZM2656.2,1570.9h26c7,0,14.4,0,21.4-.4-2.4-8.4-20.4-67.4-25-70.2-6.9,22-14.1,49.1-22.3,70.6h-.1,0Z"/>
  <path class="cls-1" d="M3151.9,988.8c3.8,2.2,48.4,128.8,53.7,143.6,7.6,1.9,13.6,2.6,15.7,7.3-8.4,5.5-47.9,5.3-57.3.6v-2.2c3.8-3.3,9.4-4.1,16.1-5.7l-11.5-33.8h-53.5c-4,11.2-7.7,22.7-11.5,33.9,8.1,2.1,12,2.6,15.4,6.9l-2,2c-11.2,2.7-37.1,4-46.2-1l.3-2.2c4.9-3.5,10.2-4.1,17.8-5.8,11.5-43.3,31.2-95.2,45.6-139l17.4-4.5h0v-.1h0ZM3118.4,1086.8h28.3c6.3,0,11.2.7,16-1.4,3.3-4.7-17.4-62.3-21.4-70.7-8.6,22.8-15.7,48.8-22.9,72h0v.1h0Z"/>
  <path class="cls-1" d="M2766,1474.2h46.5c25.2,42.6,49.1,85.7,75,128.2v-117.4c-9.4-2-13.6-2.3-18.2-7l1.6-2.1c11-2.9,37.1-4.3,45.8,1l-.2,2.3c-3.9,3.4-9.3,4.2-16.1,5.9v144.6c-11.1-.8-22.1-1.7-26.9-8.1-9.9-13.3-17.6-27.7-25.7-41.4l-49.9-84.1v120.2c8.3,2.2,11.8,2.5,15.8,6.9l-1.3,2.1c-10.4,3.3-36.7,4.4-44.8-1l.5-2.3c4.8-3.5,9.4-3.9,17.1-5.6v-131.4c-14.8-3.2-16.6-2-19.2-10.8h0Z"/>
  <path class="cls-1" d="M3586.2,990.1h46.2c25.8,42.3,50.4,86.3,75.3,128.8v-118c-7.3-1.6-20.4-3.5-16.9-8.9,10.8-3.4,36.4-4.2,45.9.4l.2,2.4c-4.1,3.6-9.4,4.3-16.7,6.1v144.4c-12.6-.7-22.4-2-27.5-9.2-9.7-13.6-17.5-27.8-25.7-41.8l-48.8-82.1v120c8,2.1,11.3,2.5,15.3,6.6l-1.4,2.1c-10.3,3.2-36.2,4.3-44.6-.6l.3-2.2c4.1-3.3,10.9-4.3,17.6-5.9v-131.2c-14.5-3.3-17.4-2.1-19.2-10.9h0Z"/>
  <path class="cls-1" d="M2375.8,990.1h111.7c.4,6.7,3.4,28.8-3.3,33.4-6.9-2.8-6.8-12.6-10.3-19.5l-.7-1.4c-16.2-.4-38.8,0-55.5,0v56.3c53.9.9,28.5-4.2,46.6-22.3,4.3,10.4,4.1,45.3,0,55.6-6.2-6-7.6-14.7-11.1-22.1h-35.4v60.5c16.3,0,32.8.6,49.1.2,19.9-.5,8.6-13.7,18.6-20.3h4.5c3.5,2.2.3,27.6,0,32.6-19.1,0-101.5,1.9-112.4-2.6v-2.2c4.6-3.5,9.8-4.1,17.2-5.8v-131.4c-14.4-3.2-16.6-2.1-19-10.8h0v-.2h0Z"/>
  <path class="cls-1" d="M3224,1232.5h111.7c.8,10.6,1.8,21.5,1.5,32.1l-3.4.7c-14.2-2.9-1.4-11.5-13.4-19.5-11.9-1.8-40-.9-54-.8v56c49.8.8,30.5-2.2,45.6-22.2,3.3,6.8,5.2,43,2.2,49l-4.9.2c-6.1-3-1.7-10.9-9.5-15.2-7.4-1.2-24.8-.7-33.4-.6v60.6h58.2c3.8-5.9,4.2-18.5,11.5-21.4l1.1.5c4.5,6,2.1,25.9,1.7,33.5-18.9,0-103.8,2.1-113-2.7l.2-2.1c4.4-3.5,10.3-4.3,17.6-6v-131.2c-14.6-3.3-16.6-2-19.8-10.8h0l.1-.1h0Z"/>
  <path class="cls-1" d="M2940.2,1232.5c13.5,0,52.9-1.5,61.2,2.7l-.2,2.1c-4.8,3.6-10.5,4.3-18.1,6v58.2c-.2,18.8-1.4,33.9,4.6,53.1,5.1,16.2,34,29.3,57.2,15.4,22.4-13.5,18.5-47.6,18.5-66.3l-.2-60.3c-8.1-1.9-16.1-2.7-17.9-7.9,6.2-4.4,25.1-3.1,34.5-3,7.9-.2,10.9-1,16.6,2.3l-1.1,2.4c-5.2,3.7-10.5,4.3-18.4,6.1l.2,61.1c0,23.3,8.1,83.5-56.2,84.2-68.4.8-61.2-57.7-61.1-83.7l.2-61.7c-14.8-3.2-16.4-2.2-19.6-10.8h-.2v.1h0Z"/>
  <path class="cls-1" d="M2548.2,986.9c29.1-1.9,41.1,3.3,55.4,16.8,0,4.3,1.2,16.2-1.4,19.3-2,0-13.8.3-14.4-.7-3.5-6.2-15.4-30-33.1-24.8-17.5,5.1-22,17.7-21.7,28.2.9,30.1,65.6,28.6,74.2,57.1,6.1,17,6.7,34.1-8.6,49.9-8.2,8.2-18.9,11.2-34,13.4-66.7.2-67.3-38-42.7-38.8,15.3,5.2,6.9,13.3,13.8,19.5,16.1,14.4,43.4,6.8,50-6.9,19.4-40.5-37.2-39.6-65.6-65.7-12.8-11.8-9.7-34.7-2.8-47.6,5.9-10.1,14.5-15.1,30.9-19.6h0v-.1h0Z"/>
  <path class="cls-1" d="M3147.9,1229.3c29.2-2,41.6,3.3,55.6,16.8,0,5.2.5,13.2-.9,18.3-.3,1.2-2.6,1.2-5.5,1.9-18.3-3.2-14.2-24.7-37.3-26.6-22,2.6-26.7,15.7-27,26.5-1.4,33,68.6,29,75.9,62.6,5.3,24.1,4.3,54.3-48.7,59.8-30.7-1.6-55.5-9.3-52-30,.6-3.8,3.7-6.5,9.4-8.7,17.1-.3,13.8,10.4,16.7,17.2,1.9,7.6,22.2,11.3,33.7,8.2,22.8-6.2,24.9-29.5,16.9-40.7-12.7-17.7-50.4-20.9-64.8-38.3-12.2-14.8-10.4-32.1-2.8-47.5,5.3-10,15.3-15.2,30.7-19.6h.1v.1h0Z"/>
  <path class="cls-1" d="M3064.4,1474.2h110.2c.7,6.8,5.1,28.6-2.3,32.7h-3.7c-2.3-3-4.1-13.3-6.5-18.7l-.6-1.4h-54.9v56.1c51.1.9,26.8-4.6,43.9-22.2,4.2,9.5,5.5,39.4,0,48.2l-2.6.2c-5-3.4-5.1-7.7-6.3-12.2l-3.6-2.1c-9.3-1.2-21.4-.7-31.3-.6v62.1c8.7,1.8,15.9,2.3,18.4,7.5-8.6,5.5-48.9,5.3-58.6.6v-2.4c4.6-3.5,10-4.1,17.5-5.7v-131.9c-15.1-2.8-16.8-1.4-19.5-10.2h-.099Z"/>
  <path class="cls-1" d="M3219.1,990.1h131.4c-.1,8.5,4.2,28.7-5,34.2h-4.2c-2.4-3.7-3.7-13.9-6.6-20l-.7-1.4c-11.6-.4-26.7-.2-38.5-.2v129.6c8.6,1.8,15.3,2.2,18.3,7.3l-2.4,1.8c-12.3,2.6-45.4,4-55.6-1.2l.2-2.4c4.3-3.2,10.2-4,17-5.5v-129.6h-37.3c-5.2,8-3.3,19.1-10.6,22.3l-2.8-.8c-5.6-6.7-3.5-26-3.3-34.2h.1v.1h0Z"/>
  <path class="cls-1" d="M2925.1,1474.2h131.5c0,6.2.9,30.6-1,34.2l-4.2.2c-14.7-4.1-.5-12.9-12.9-21.1-6.6-1.2-28.6-.6-36.8-.6v129.5c8.8,1.9,16.7,2.3,18.2,7.8-7.9,5-50.3,5-58.6,0l.4-2.2c4.3-3.3,10.6-4.2,17.5-5.8v-129.4h-37.7c-4.8,8.6-2.8,13.5-7.1,21.2l-4.7.4-2.8-1.3c-3.7-7.1-2.2-24.8-1.9-33.1v.2h.1Z"/>
  <path class="cls-1" d="M2624.4,990.1h131.2c0,7.3,2.9,29.4-3.7,34.1h-5c-2-2.4-5.2-16.2-7.3-21.2-9.7-.5-28.8-.2-39.2-.3v129.1c6.4,2.7,16.8,2.2,19.3,7.2l-2.8,2.1c-12,2.6-46.7,4.1-56.9-.7v-2c4.9-3.6,10.3-4.3,17.9-6.1v-129.6c-9.7,0-26.8-.7-35.7.5-3.1,6.8-6.5,15.2-11.6,21.4l-4.6-.5c-2.1-5.8-1.6-27-1.6-33.9h0v-.1h0Z"/>
  <path class="cls-1" d="M3359,990.1c14.4,0,50.4-1.4,60.4,2.5l.3,2.1c-4.7,3.8-10.9,4.5-18.8,6.3v131.3c14.6,3.1,17,2.1,21,10.6-13.8,0-52.7,1.4-61.5-2.5v-2.1c4.2-3.4,10.7-4.4,17.7-6v-131.2c-14.6-3.3-17.2-2.1-19.1-10.9h0v-.1h0Z"/>
  <g>
    <path class="cls-6" d="M668,501.7c316.2,0,574.2,259.8,574.2,578.5s-257.9,578.5-574.2,578.5S93.9,1398.9,93.9,1080.2,351.8,501.7,668,501.7h0Z"/>
    <path class="cls-7" d="M668,1669.6c-78.782,0-155.299-15.629-227.425-46.451-69.625-29.753-132.195-72.316-185.974-126.509-53.772-54.186-96.004-117.227-125.524-187.37-30.574-72.651-46.077-149.722-46.077-229.07s15.507-156.417,46.091-229.071c29.526-70.141,71.766-133.182,125.547-187.37,53.784-54.191,116.356-96.754,185.978-126.509,72.122-30.822,148.625-46.45,227.384-46.45s155.268,15.628,227.399,46.45c69.633,29.754,132.216,72.318,186.012,126.508,53.795,54.189,96.047,117.23,125.582,187.37,30.595,72.656,46.107,149.727,46.107,229.072s-15.508,156.419-46.093,229.071c-29.528,70.143-71.772,133.184-125.559,187.37-53.791,54.191-116.373,96.755-186.008,126.509-72.136,30.822-148.658,46.45-227.44,46.45ZM668,512.6c-75.798,0-149.418,15.038-218.817,44.697-67.027,28.645-127.276,69.631-179.072,121.819-51.804,52.197-92.49,112.916-120.928,180.471-29.451,69.962-44.384,144.188-44.384,220.613s14.928,150.654,44.37,220.614c28.431,67.558,69.109,128.276,120.904,180.471,51.791,52.188,112.038,93.175,179.067,121.818,69.403,29.658,143.038,44.696,218.859,44.696s149.462-15.038,218.875-44.696c67.041-28.645,127.299-69.631,179.102-121.819,51.809-52.195,92.499-112.915,120.938-180.471,29.452-69.961,44.385-144.187,44.385-220.613s-14.938-150.648-44.399-220.612c-28.446-67.554-69.144-128.273-120.962-180.471-51.808-52.188-112.068-93.174-179.107-121.82-69.408-29.659-143.034-44.697-218.833-44.697Z"/>
    <path class="cls-3" d="M668,1614.4c-71.4,0-140.8-14.2-206.2-42.1-63.1-27-119.9-65.6-168.6-114.7-48.8-49.1-87.1-106.3-113.8-169.9-27.7-65.9-41.8-135.7-41.8-207.6s14.1-141.8,41.8-207.6c26.8-63.6,65.1-120.7,113.8-169.9,48.8-49.1,105.5-87.7,168.6-114.7,65.4-27.9,134.8-42.1,206.2-42.1s140.8,14.2,206.2,42.1c63.1,27,119.9,65.6,168.6,114.7,48.8,49.1,87.1,106.3,113.8,169.9,27.7,65.9,41.8,135.7,41.8,207.6s-14.1,141.8-41.8,207.6c-26.8,63.6-65.1,120.7-113.8,169.9-48.8,49.1-105.5,87.7-168.6,114.7-65.4,27.9-134.8,42.1-206.2,42.1h0ZM668,560.3c-69.4,0-136.9,13.8-200.5,41-61.4,26.2-116.6,63.8-164,111.6-47.5,47.8-84.7,103.4-110.8,165.3-27,64.1-40.7,132-40.7,202s13.7,137.9,40.7,202c26,61.9,63.3,117.5,110.8,165.3,47.4,47.8,102.6,85.4,164,111.6,63.6,27.2,131,41,200.5,41s136.9-13.8,200.5-41c61.4-26.2,116.6-63.8,164-111.6,47.5-47.8,84.7-103.4,110.8-165.3,27-64.1,40.7-132,40.7-202s-13.7-137.9-40.7-202c-26-61.9-63.3-117.5-110.8-165.3-47.4-47.8-102.6-85.4-164-111.6-63.6-27.2-131-41-200.5-41Z"/>
    <path class="cls-3" d="M668,1459.9c-50.7,0-100-10.1-146.5-29.9-44.9-19.2-85.2-46.6-119.9-81.5-34.7-34.9-61.9-75.6-80.9-120.8-19.7-46.8-29.7-96.5-29.7-147.6s10-100.8,29.7-147.6c19-45.2,46.3-85.8,80.9-120.8,34.7-34.9,75-62.4,119.9-81.5,46.5-19.9,95.8-29.9,146.5-29.9s100.1,10.1,146.6,29.9c44.9,19.2,85.2,46.6,119.9,81.5s61.9,75.6,80.9,120.8c19.7,46.8,29.7,96.5,29.7,147.6s-10,100.8-29.7,147.6c-19,45.2-46.3,85.8-80.9,120.8-34.7,34.9-75,62.4-119.9,81.5-46.5,19.9-95.8,29.9-146.5,29.9h-.1,0ZM668,714.8c-48.8,0-96.2,9.7-140.8,28.8-43.1,18.4-81.9,44.8-115.3,78.4-33.4,33.6-59.6,72.7-77.9,116.2-19,45-28.6,92.8-28.6,142s9.6,96.9,28.6,142c18.3,43.5,44.5,82.6,77.9,116.2,33.3,33.6,72.1,60,115.3,78.4,44.7,19.1,92.1,28.8,140.8,28.8s96.2-9.7,140.8-28.8c43.1-18.4,81.9-44.8,115.3-78.4,33.4-33.6,59.6-72.7,77.9-116.2,19-45,28.6-92.8,28.6-142s-9.6-96.9-28.6-142c-18.3-43.5-44.5-82.6-77.8-116.2-33.3-33.6-72.1-60-115.3-78.4-44.7-19.1-92.1-28.8-140.9-28.8h0Z"/>
    <path class="cls-4" d="M668,736.6c187.9,0,341.1,154.4,341.1,343.6s-153.2,343.6-341.1,343.6-341.1-154.4-341.1-343.6,153.2-343.6,341.1-343.6h0Z"/>
    <path class="cls-5" d="M1092.3,1217.8c3.5,0,6.3.8,8.5,2.4,2.1,1.8,3.1,4.1,3.1,6.8s-.4,3.5-1.2,4.9c-1,2.4-2,4.6-3,6.4-1.6,2.4-2.5,4.3-2.7,5.2-.6,1-.9,1.9-.9,2.8s.2.5.4.6c.2.2.5.3.7.3.4,0,1.9-.7,4.3-2.1.9-.6,1.8-1.3,2.8-2.1s2.2-1.6,3.5-2.4c.9-.8,3.1-2.2,6.6-4.3,1.9-1,4-1.5,6.4-1.5s4.1.5,6,1.3c2,1.6,3.2,3,4,4.2.9,1.6,1.4,3.2,1.4,5,0,3.5-1.3,6-4,7.4-2.8,1.3-6.3,1.9-10.3,1.9s-3.2-.2-7.4-.4c-3.5-.3-6.1-.5-7.8-.5s-3.5.3-3.5.9,1,1.5,3.1,2.6c.4.2,1.7.8,3.6,1.9,1.2.5,2.7,1.3,4.5,2.2,2.8,1.3,5.5,3,8.4,5.2,2.1,2.1,3,4.1,3,6.1s-1.3,5.1-3.8,7.2c-2.3,1.8-5.3,2.8-8.8,2.8s-6.5-1.1-8.1-3.2c-2.1-2.4-3.5-5.2-4.1-8.6-1.3-4.1-2-6.9-2.2-8.7-.8-2.2-1.5-3.4-2.3-3.4s-1.8,1.1-2.4,3.4c-.5,2.2-1.2,5.1-2.2,8.7s-2.5,6.5-4.3,8.6c-1.9,2.1-4.7,3.2-8.1,3.2s-6.5-.9-8.8-2.8c-2.4-2.1-3.6-4.4-3.6-7.2s.9-4.3,2.9-6.1c1.8-1.7,4.4-3.5,8-5.2,1.2-.6,2.6-1.3,4.3-2.1,1-.7,2.3-1.3,3.6-1.9,2.2-1.2,3.2-2.1,3.2-2.8s-1.2-.9-3.5-.9-4.2.2-7.4.5c-4.2.3-6.6.4-7.3.4-4.3,0-7.7-.6-10.3-1.9-2.8-1.5-4.2-4-4.2-7.4s.4-3.3,1.3-5c.6-1.2,2-2.6,4-4.2,1.8-.9,3.9-1.3,6-1.3s4.5.6,6.7,1.7c2.6,1.3,4.8,2.8,6.7,4.3.4.4.9.8,1.4,1.2s1,.8,1.6,1.2,1,.8,1.5,1.1c.5.4.9.7,1.4.9,1.7,1.4,3.1,2.1,4.1,2.1-.2,0,.2,0,.9-.3,0,0,0-.2.2-.3,0-.2.2-.2.2-.3,0-.8-.9-2.9-2.7-6.4-.5-.9-.9-1.7-1.4-2.4-.4-.7-.8-1.4-1-2.1-.6-1.1-1.2-2.1-1.6-3.2-.8-1.6-1.2-3.3-1.2-5.1s.6-3.2,1.7-4.9c.9-1.4,2.3-2.4,4.2-3.2,1.9-.7,3.9-1,6-1"/>
    <path class="cls-5" d="M252.1,1217.8c3.5,0,6.3.8,8.5,2.4,2.1,1.8,3.1,4.1,3.1,6.8s-.4,3.5-1.2,4.9c-1,2.4-2,4.6-3,6.4-1.6,2.4-2.5,4.3-2.7,5.2-.6,1-.9,1.9-.9,2.8s.2.5.4.6c.2.2.5.3.7.3.4,0,1.9-.7,4.3-2.1.9-.6,1.8-1.3,2.8-2.1,1-.8,2.2-1.6,3.5-2.4.9-.8,3.1-2.2,6.6-4.3,1.9-1,4-1.5,6.4-1.5s4.1.5,6,1.3c2,1.6,3.2,3,4,4.2.9,1.6,1.4,3.2,1.4,5,0,3.5-1.3,6-4,7.4-2.8,1.3-6.3,1.9-10.3,1.9s-3.2-.2-7.4-.4c-3.5-.3-6.1-.5-7.8-.5s-3.5.3-3.5.9,1,1.5,3.1,2.6c.4.2,1.7.8,3.6,1.9,1.2.5,2.7,1.3,4.5,2.2,2.8,1.3,5.5,3,8.4,5.2,2.1,2.1,3,4.1,3,6.1s-1.3,5.1-3.8,7.2c-2.3,1.8-5.3,2.8-8.8,2.8s-6.5-1.1-8.1-3.2c-2.1-2.4-3.5-5.2-4.1-8.6-1.3-4.1-2-6.9-2.2-8.7-.8-2.2-1.5-3.4-2.3-3.4s-1.8,1.1-2.4,3.4c-.5,2.2-1.2,5.1-2.2,8.7s-2.5,6.5-4.3,8.6c-1.9,2.1-4.7,3.2-8.1,3.2s-6.5-.9-8.8-2.8c-2.4-2.1-3.6-4.4-3.6-7.2s.9-4.3,2.9-6.1c1.8-1.7,4.4-3.5,8-5.2,1.2-.6,2.6-1.3,4.3-2.1,1-.7,2.3-1.3,3.6-1.9,2.2-1.2,3.2-2.1,3.2-2.8s-1.2-.9-3.5-.9-4.2.2-7.4.5c-4.2.3-6.6.4-7.3.4-4.3,0-7.7-.6-10.3-1.9-2.8-1.5-4.2-4-4.2-7.4s.4-3.3,1.3-5c.6-1.2,2-2.6,4-4.2,1.8-.9,3.9-1.3,6-1.3s4.5.6,6.7,1.7c2.6,1.3,4.8,2.8,6.7,4.3.4.4.9.8,1.4,1.2.6.4,1,.8,1.6,1.2s1,.8,1.5,1.1c.5.4.9.7,1.4.9,1.7,1.4,3.1,2.1,4.1,2.1-.2,0,.2,0,.9-.3,0,0,0-.2.2-.3,0-.2.2-.2.2-.3,0-.8-.9-2.9-2.7-6.4-.5-.9-.9-1.7-1.4-2.4-.4-.7-.8-1.4-1-2.1-.6-1.1-1.2-2.1-1.6-3.2-.8-1.6-1.2-3.3-1.2-5.1s.6-3.2,1.7-4.9c.9-1.4,2.3-2.4,4.2-3.2,1.9-.7,3.9-1,6-1"/>
    <path class="cls-5" d="M1071.1,1082.2l75.7,10.7-2.8,20.1-43,23.3c-.9.5-2.6,1.1-5.1,2.1-2.6.9-5.6,1.9-9.2,3,3.2,0,6,.2,8.5.3,2.4.2,4.7.4,6.6.6l37.4,5.3-2.8,20-75.7-10.7,2.8-20,43.1-23.3c.9-.5,2.6-1.2,5.2-2.1s5.6-1.9,9-2.9c-3.2,0-6.1-.2-8.5-.3-2.4-.2-4.7-.4-6.6-.6l-37.4-5.3,2.8-20.1h0v-.1ZM1060.1,995.6l79.4,15.6,3.6,26.1-72.1,37.1-2.9-20.7,13-5.8-4.1-29.5-14.1-2.1-2.9-20.7h.1ZM1092.5,1020.8l2.9,20.7,23.9-11.3c.7-.3,1.9-.9,3.6-1.5s3.7-1.5,6.3-2.5c-1.9-.2-3.8-.4-5.5-.6s-3.4-.4-5.1-.6l-26.1-4.1h0v-.1h0ZM1052.8,968.3l74.2-18.6,5.1,20.6-74.2,18.6-5.1-20.6ZM1036.5,921.5l53.8-23-6.7-15.9,16.7-7.1,21.6,51.2-16.7,7.1-6.7-15.9-53.8,23-8.1-19.3h-.1v-.1h0ZM1026,847.5c-1.5,4.5-2.2,8.5-2.2,12s.7,6.6,2.2,9.2c1.4,2.4,3.2,4,5.4,4.9,2.2.8,4.3.6,6.2-.6,2.2-1.3,3.6-2.9,3.9-5,.4-2.1,0-5.8-1.6-11.3-2-7.6-2.4-13.5-1.1-17.8s4.3-7.9,9.2-10.7c6.3-3.7,12.7-4.6,19.2-2.6s11.6,6.3,15.5,13.1c2.1,3.7,3.6,7.4,4.5,11.3.9,3.9,1.2,7.8.9,12l-16.3,1.9c.6-3.1.7-6,.3-8.7s-1.2-5.1-2.4-7.2c-1.3-2.2-2.8-3.6-4.6-4.4s-3.6-.7-5.2.2c-1.7.9-2.7,2.4-2.9,4.1-.3,1.8,0,4.7,1.1,8.6,0,.2.2.6.2.9,2.3,8.6,2.8,14.7,1.8,18.5-.7,2.5-2,4.9-3.8,7s-4.1,4-6.9,5.6c-7,4.1-14,5.1-20.9,2.9-6.9-2.1-12.6-7.1-17.1-14.8-2.7-4.7-4.3-9.3-4.9-14.1-.6-4.7-.2-9.8,1.1-15.3l18.2.4v-.2h.2v.1h0ZM979.8,826.4l59.5-48.5,13.3,16.5-59.5,48.5-13.3-16.5h0ZM975.3,759.9l2.8,2.8c3.2,3.2,6.1,5,8.6,5.4s5-.6,7.3-2.9c2.7-2.8,3.9-5.4,3.7-7.9s-2-5.4-5.2-8.7l-2.9-3-14.2,14.4h0l-.1-.1h0ZM932.9,774.7l54.1-54.5,15.4,15.6c6,6.1,10,10.6,11.8,13.6,1.8,2.9,2.9,5.9,3.4,9,.5,3.5,0,6.9-1.2,10.2-1.3,3.4-3.2,6.4-6,9.2-4.2,4.2-8.6,6.6-13.3,7.2-4.7.6-9.4-.7-14.2-3.8l-7.1,36.8-16.7-16.8,8.8-33.9-21.2,21.3-13.8-13.9h0ZM864.1,724l43.9-63.2,17.1,12.1-17.1,24.6,22.7,16,17.1-24.6,17.1,12.1-43.9,63.2-17.1-12.1,17.8-25.7-22.7-16-17.8,25.7-17.1-12.1ZM882.5,650.7l-9.2,21c-1.3-4.1-3-7.4-5-10s-4.5-4.5-7.4-5.8c-5.4-2.4-10.7-2.5-15.8-.3-5.1,2.3-8.9,6.4-11.6,12.5-2.5,5.7-2.8,11.1-1,16.3,1.8,5.3,5.4,9.1,10.7,11.5,2.9,1.3,6.1,1.9,9.2,1.7s6.7-1.2,10.7-3l-9.3,21c-3.7,0-7.2-.2-10.5-.7-3.3-.6-6.5-1.6-9.6-3-3.8-1.7-7.1-3.8-10-6.2s-5.2-5.1-7.1-8.1c-3.6-5.8-5.7-12.1-6.1-18.6-.4-6.6.9-13.3,3.9-19.9,2.4-5.4,5.4-9.9,9.1-13.5,3.7-3.6,8.1-6.5,13.2-8.5,4.8-2,9.7-2.8,14.6-2.7s9.9,1.4,15,3.7c3.1,1.3,5.9,3.1,8.6,5.1s5.2,4.6,7.6,7.3h0v.2h0ZM712,658.8l3.5.5c8.1,1.2,14.3.3,18.5-2.5s6.8-7.9,7.8-15.2,0-13-3.3-16.8c-3.2-3.9-8.9-6.5-17.1-7.7l-3.5-.5-5.8,42.2h-.1ZM689.1,673l10.7-76.4,15.8,2.2c11.8,1.7,20.1,3.4,24.7,5.2,4.7,1.8,8.8,4.3,12.1,7.4,4.3,4,7.3,8.8,9.1,14.5,1.7,5.6,2.1,11.8,1.2,18.6-.9,6.7-3,12.6-6.2,17.5s-7.5,8.7-12.7,11.4c-4,2.1-8.5,3.3-13.3,3.7s-12.2,0-22-1.4l-3.5-.5-15.8-2.2h-.1ZM628.6,674v-77.1h46.9v16.9h-26.5v13.3h25v16.5h-25v13h26.5v17.3h-46.9v.1ZM617,675l-19,4.4-11.8-31.4c-.8-2.2-1.7-4.7-2.6-7.4-.9-2.8-1.8-5.8-2.8-9,.2,3.2.2,7.5,0,12.6,0,1.1-.2,1.8-.2,2.4l-2.1,37.6-13.5,3.2-18.2-32.9c-.2-.5-.6-1.1-1.1-2.1-2.5-4.4-4.3-8.1-5.5-11.2.5,2.9.9,5.8,1.2,8.6.4,2.8.6,5.7.9,8.6l3.1,33.5-18.9,4.4-5.7-77.8,20.1-4.7,20.1,36.1c.2.2.4.7.7,1.3,1.8,3.2,3.2,6,4,8.5-.2-1.3-.2-2.9-.2-4.7s0-3.8.2-6.2l2.5-41.3,20.1-4.7,28.7,72.4-.2-.2h.2ZM475.7,721.3l-31.1-70.4,42.8-19.2,6.8,15.4-24.2,10.9,5.4,12.2,22.9-10.3,6.7,15.1-22.9,10.3,5.3,11.9,24.2-10.9,6.9,15.8-42.8,19.2ZM425.1,753.8l-40.5-65.4,39.7-25,8.8,14.3-22.5,14.1,7,11.4,21.2-13.3,8.7,14.1-21.2,13.3,6.9,11.1,22.5-14.1,9.1,14.6-39.7,25h0v-.1h0ZM368,782.9l2.5-2.4c6-5.6,9.2-11,9.7-16,.5-5.1-1.8-10.3-6.8-15.7s-10-8.1-15.1-8c-5.1,0-10.7,2.9-16.6,8.5l-2.5,2.4,28.8,31.1h0v.1h0ZM364.6,809.7l-52.2-56.4,11.6-11c8.7-8.1,15.2-13.6,19.6-16.1,4.3-2.6,8.8-4.2,13.3-4.8,5.8-.8,11.5-.2,16.9,2,5.4,2.1,10.5,5.8,15.1,10.7,4.6,5,7.8,10.3,9.6,15.9s2.1,11.3.8,17.1c-.9,4.4-2.8,8.7-5.5,12.7s-7.7,9.6-15,16.3l-2.6,2.4-11.7,11h.2v.2h-.1,0ZM328.5,859.3l-61.9-45.3,27.6-38.2,13.6,10-15.6,21.6,10.7,7.9,14.7-20.4,13.3,9.7-14.7,20.4,10.4,7.7,15.6-21.6,13.9,10.2-27.6,38.2h0v-.2h0ZM269.9,883.7l1.8-3.5c2.1-4,3-7.3,2.6-9.9s-2.1-4.7-4.9-6.2c-3.4-1.8-6.2-2.2-8.6-1.3s-4.6,3.5-6.7,7.5l-2,3.7,17.8,9.6h0v.1h0ZM296.4,920.2l-67.5-36.2,10.3-19.4c4-7.6,7.1-12.7,9.4-15.3s4.8-4.6,7.6-5.8c3.2-1.4,6.5-2.1,10-1.9,3.6.2,7,1.3,10.5,3.1,5.2,2.8,8.8,6.4,10.7,10.7,1.9,4.3,2.1,9.3.6,14.8l37-3.9-11.1,20.9-34.7,1.4,26.5,14.1-9.2,17.4h-.2.1v.1h0ZM269.8,1012.2l-74.6-17.4,10.6-46,16.3,3.8-6,26.1,13,3,5.6-24.6,16,3.7-5.6,24.6,12.6,2.9,6-26.1,16.7,3.9-10.6,46h0v.1ZM265.7,1098.3l-76.5-1.3.4-21,29.7.6.5-28-29.8-.6.4-21.1,76.5,1.3-.4,21.1-31.1-.6-.5,28,31.1.6-.4,21h.1ZM271.1,1146.6l-57.9,8.2,2.4,17.1-17.9,2.5-7.7-55,17.9-2.5,2.4,17.1,57.9-8.2,2.9,20.8Z"/>
    <path class="cls-6" d="M604.3,1032.6c.9,2.1,1.9.9-4.2,2.6-11.1,3-34.5,1.3-39.3,3.6-2.8,1.3.8,2,17.8,13,3.5,2.3-6.6,5.9-25.4,2.8-22.1-3.6-22-2.1-29.8-4.6-22-6.9,52,33.8-40.5,13.3h1.6c17.1,21,12.8,28-14.7,20.3-5.8-1.7-8.5-4.3-19-3.6-7.3.6-1.7,1.7,0,1.3,24.7,21-3.6,17.4-16,13-11.9-4.1-22.4-7.7-30.6-2,4.8-.6,12.6,5,18.7,13-5.4,3-20.4,3.6-32.5.3-15.2-4-26.5-8.1-32.5-8.7,37.7,37.1,70.7,68.2,123,93.6,25.4,8.6,37.1,16.7,58.2,17.9,19.3,1.1-16.7,2.9,14.3.3,16.4-1.3,54.7-19.7,59.4-26.8,2.6-3.9,3.7-.4,9.9,8.9,4,8.8,10.1,17.1,15.8,24.2,4.4,5.4,12,6.2,17.1,11,3.9,3.6,8.8,21.8,13,25,3.3-3,5.6-17.6,9.2-20.5,6.5-5.1,13.2-10.4,18.8-17.1,8.1-9.9,16.9-21.1,23.5-32.1,27.2,13.3,55.4,28.2,81.3,26.5,66.3-4.4,126-60.7,176.8-111.4-28.8,7.3-60.3,16-60.5,10.1,0-2,3.1-9.6,11.2-13.9-66.3,11.5-50,1.5-37.5-10.7-19.8.9-28.9,5.1-35.5,4.2-13.3-1.7-27-.3-4.2-17.7-7.7.6,9.9-4.7-6.6-2.4-41.5,5.8-46.4,5-32.2-14.5-9.4,2,4.9-2.9-3.9-.9-3.6.8-18.5,2.3-20.7,2.5-35.1,3.7-15.6-7.5-9.3-11.4,5.3-3.2,6.2,2.8.2-1.4-9.5-.3-38.6,1-46.8-3.2-1.5.8,3.4-5.4,2.4-2.5l-2.8.4,38.7-84.3c-8.1-12.6-27.1-13.4-37-8.1-8.1,4.3-5.1,2.6-9.7,2.1-6.4-.7-18.9-7.9-29.7-5.3-7.7,1.8-9.1,5.4-15.2,2.1-8.2-4.4-17.7-1.6-22.7-3.2-2.4-.8-10.5,5.4-14.1,3.4-4.6-2.6-21.5-10.2-33.6.6-3.6,3.2-6.3-1.1-10.8-2.2-16.3-4.2-29.4-3.9-31.8,12.6l38,79.8h.2v.1h0Z"/>
    <path class="cls-3" d="M668,1667.8c-78.6,0-154.9-15.6-226.8-46.3-69.4-29.7-131.8-72.1-185.5-126.2-53.6-54-95.7-116.9-125.2-186.8-30.5-72.4-46-149.3-46-228.4s15.5-155.9,46-228.4c29.4-69.9,71.6-132.8,125.2-186.8s116-96.5,185.5-126.2c71.9-30.7,148.2-46.3,226.8-46.3s154.8,15.6,226.8,46.3c69.4,29.7,131.9,72.1,185.5,126.2,53.6,54,95.8,116.9,125.2,186.8,30.5,72.4,46,149.3,46,228.4s-15.5,155.9-46,228.4c-29.4,69.9-71.6,132.8-125.2,186.8s-116.1,96.5-185.5,126.2c-71.9,30.7-148.2,46.3-226.8,46.3h0ZM668,514.2c-75.6,0-149,15-218.2,44.6-66.8,28.6-126.9,69.4-178.6,121.5-51.7,52-92.2,112.6-120.6,179.9-29.4,69.8-44.3,143.7-44.3,219.9s14.9,150.2,44.2,219.9c28.4,67.4,68.9,127.9,120.6,179.9,51.6,52,111.7,92.9,178.6,121.5,69.2,29.6,142.6,44.6,218.2,44.6s149-15,218.2-44.6c66.8-28.6,126.9-69.4,178.6-121.5,51.7-52,92.2-112.6,120.6-179.9,29.4-69.7,44.3-143.7,44.3-219.9s-14.9-150.2-44.3-219.9c-28.4-67.4-69-127.9-120.6-179.9-51.7-52-111.8-92.9-178.6-121.5-69.2-29.6-142.6-44.6-218.2-44.6h.1Z"/>
    <path class="cls-5" d="M1024.3,1382.4l2.1-2.8c5.1-6.5,7.4-12.3,7.1-17.4s-3.4-9.9-9.2-14.5-11.1-6.4-16.2-5.5c-5,.9-10,4.6-15.1,11.1l-2.1,2.8,33.3,26.3h.1ZM1025.1,1409.4l-60.3-47.5,9.8-12.6c7.3-9.5,13-15.8,16.9-19s8.1-5.5,12.4-6.9c5.7-1.7,11.3-2,17.1-.7,5.7,1.3,11.2,4,16.6,8.2s9.3,8.9,11.9,14.2,3.8,10.9,3.5,16.8c-.2,4.5-1.4,9-3.5,13.5-2.1,4.4-6.2,10.7-12.3,18.6l-2.1,2.8-9.8,12.6h-.2ZM974.5,1433.7c4.3-3.9,6.4-8.7,6.4-14.5s-2.2-11.1-6.6-15.9c-4.3-4.8-9.3-7.5-15-8.1s-10.7,1-14.9,4.8c-4.3,3.9-6.4,8.8-6.4,14.5s2.2,11.1,6.6,15.9c4.4,4.9,9.4,7.7,15,8.4,5.6.6,10.6-1,15-5h0l-.1-.1h0ZM989.8,1389.2c3.7,4.1,6.4,8.7,8.1,13.7s2.4,10.2,2.1,15.6-1.7,10.7-4.1,15.6-5.5,9.2-9.6,12.9c-4.1,3.7-8.6,6.5-13.7,8.3s-10.3,2.6-15.6,2.4c-5.4-.2-10.6-1.4-15.4-3.6-4.7-2.3-8.9-5.4-12.6-9.5-3.6-4.1-6.4-8.6-8.1-13.7-1.7-5-2.4-10.3-2-15.7.3-5.4,1.7-10.5,4-15.5,2.4-4.9,5.5-9.2,9.6-12.9,4-3.7,8.6-6.5,13.7-8.3,5.1-1.9,10.3-2.7,15.7-2.4,5.4.2,10.4,1.5,15.2,3.7,4.7,2.3,9,5.4,12.6,9.6h0v-.2h.1ZM895.7,1474.6l-8.1-14,35.5-20.7c.3.5.6.9.9,1.5.3.6.8,1.3,1.4,2.4,6.6,11.5,8.7,22.2,6.3,32.1s-9.1,18-20,24.3c-5.4,3.2-10.7,5.1-15.7,5.9-5.1.8-10.3.5-15.5-.9-5-1.3-9.6-3.7-13.8-7.1s-7.7-7.4-10.5-12.2c-2.8-5-4.7-10-5.4-15.2s-.3-10.4,1.1-15.7c1.4-5.2,3.9-9.9,7.2-14.1s7.5-7.7,12.5-10.6c6.5-3.8,13-5.8,19.4-6.2,6.5-.3,12.9,1.1,19.3,4.2l-11.4,16.7c-3.3-1.5-6.6-2.2-9.6-2.1-3.1,0-6.1,1-8.9,2.7-5.4,3.2-8.6,7.4-9.6,12.9-1,5.4.2,11.4,3.9,17.6,3.6,6.4,8.1,10.5,13.3,12.3s10.5,1.2,16-2c4.6-2.7,7.7-6,9.6-10.1,1.7-4,1.8-8.1.2-12.2l-18,10.5h-.1ZM791.4,1548.6l-21.1-74.2,45.1-13,4.7,16.3-25.6,7.3,3.6,12.9,24.1-6.9,4.5,16-24.1,6.9,8.3,29.1-19.6,5.7h0l.1-.1h0ZM737.2,1542.8c5.8-.8,10.2-3.6,13.3-8.4,3.2-4.8,4.3-10.4,3.4-16.9-.9-6.4-3.6-11.5-7.9-15.2-4.4-3.7-9.4-5.2-15.1-4.4-5.8.8-10.2,3.6-13.3,8.4-3.2,4.8-4.3,10.4-3.4,16.8.9,6.6,3.5,11.7,7.8,15.3,4.3,3.7,9.3,5.1,15.2,4.3v.2h0v-.1h0ZM774.7,1514.6c.8,5.5.5,10.8-.9,15.9-1.3,5.1-3.6,9.8-6.9,14.1s-7.3,7.8-12.1,10.6c-4.7,2.8-9.7,4.5-15.1,5.2-5.4.8-10.7.5-16-.9-5.3-1.3-10-3.6-14.3-6.9-4.4-3.2-8-7.1-10.7-11.7s-4.4-9.6-5.2-15-.5-10.7.9-15.9c1.3-5.1,3.7-9.9,7.1-14.2,3.2-4.3,7.2-7.8,11.8-10.6s9.7-4.5,15.2-5.3c5.4-.8,10.7-.5,16,.9,5.3,1.3,10.1,3.6,14.4,6.9,4.3,3.2,7.8,7.1,10.5,11.7s4.4,9.6,5.2,15l.2.2h-.1ZM582.5,1556.3l10.7-76.4,20.7,2.9-4.1,29.7,27.6,3.9,4.1-29.7,20.8,2.9-10.7,76.4-20.8-2.9,4.3-31.1-27.6-3.9-4.3,31.1-20.7-2.9ZM590.8,1483.1l-6.3,22.1c-1.9-3.9-3.9-6.9-6.3-9.2-2.3-2.2-5.1-3.8-8.1-4.7-5.8-1.7-11-1-15.7,1.9s-8,7.6-9.8,14c-1.7,5.9-1.3,11.4,1.3,16.3,2.5,5,6.6,8.3,12.2,9.9,3.1.9,6.2,1,9.4.4s6.6-2.1,10.2-4.4l-6.3,22.2c-3.6.6-7.1.9-10.5.7s-6.6-.7-9.9-1.6c-4-1.2-7.6-2.7-10.7-4.7-3.2-1.9-5.8-4.3-8.1-7.1-4.4-5.3-7.3-11.2-8.6-17.7s-.9-13.3,1.1-20.3c1.6-5.7,4-10.6,7.2-14.7s7.1-7.5,11.8-10.3c4.5-2.6,9.2-4.2,14.1-4.7,4.9-.6,10,0,15.4,1.6,3.2.9,6.3,2.2,9.2,3.9,2.9,1.7,5.8,3.8,8.5,6.2h0v.2h-.1ZM483.9,1480.4l3.5,1.7c4.1,1.9,7.4,2.6,10,2.1,2.5-.6,4.5-2.3,5.8-5.3,1.7-3.5,1.9-6.4.8-8.8-1-2.3-3.6-4.4-7.8-6.4l-3.8-1.8-8.5,18.4h0v.1h0ZM449.1,1509l32.4-70,19.8,9.3c7.7,3.6,13,6.6,15.7,8.7s4.8,4.6,6.2,7.3c1.6,3.1,2.4,6.4,2.4,10s-.9,7.2-2.5,10.7c-2.5,5.4-5.8,9.2-10,11.4-4.2,2.1-9.1,2.6-14.7,1.3l5.8,37.1-21.4-10-3.2-34.9-12.6,27.4-17.8-8.4h-.1v.1ZM419.1,1399.6l17.5,11.5-20.3,31.5c-3,4.7-5,8.1-6.1,10.2-1,2.1-1.7,4.1-2.1,5.8-.4,2.1,0,4.1,1,6.1,1.1,2,2.8,3.7,5.3,5.3,2.4,1.6,4.7,2.4,6.9,2.7s4.2-.3,5.9-1.5c1.4-.9,2.9-2.4,4.4-4.3s3.8-5.1,6.8-9.8l2.8-4.4,17.5-27.1,17.5,11.4-22,34.3c-4.6,7.1-8.4,12.1-11.4,14.8-3,2.8-6.3,4.7-9.9,5.8-3.9,1.2-8.1,1.2-12.9,0-4.7-1.2-9.8-3.6-15.2-7.2-5.5-3.6-9.7-7.3-12.7-11.1-3-3.8-4.7-7.7-5.3-11.8-.5-3.7,0-7.5,1.3-11.5,1.3-3.9,4.3-9.5,8.8-16.6l4.3-6.7,17.7-27.5h.2v.1h0ZM315.5,1405.3l53.2-55.5,15,14.6-20.7,21.6,20.1,19.5,20.7-21.6,15.1,14.7-53.2,55.5-15.1-14.7,21.6-22.6-20.1-19.5-21.6,22.6-15-14.6ZM363.8,1350.3l-18.7,13.2c.9-4.2,1.3-7.9.8-11.1-.4-3.2-1.6-6.2-3.4-8.8-3.5-5-7.9-7.7-13.4-8.5-5.5-.7-10.9.9-16.3,4.7-5.1,3.6-8.1,8.1-9.2,13.5-1.2,5.4,0,10.6,3.3,15.5,1.8,2.7,4.2,4.7,7,6.2s6.4,2.5,10.7,3l-18.7,13.2c-3.2-1.8-6.1-3.9-8.6-6.1s-4.7-4.7-6.7-7.5c-2.4-3.5-4.2-6.9-5.4-10.4-1.2-3.5-1.8-7-1.9-10.7-.2-6.9,1.3-13.3,4.3-19.2,3.1-5.8,7.6-10.9,13.6-15.1,4.8-3.4,9.7-5.7,14.8-6.9,5.1-1.2,10.2-1.3,15.6-.5,5.1.9,9.8,2.6,13.9,5.3,4.1,2.7,7.8,6.3,11,11,1.9,2.8,3.5,5.7,4.7,8.9,1.3,3.2,2.1,6.6,2.7,10.3h-.1,0Z"/>
  </g>
</svg>